<svg width="191" height="198" viewBox="0 0 191 198" fill="none" xmlns="http://www.w3.org/2000/svg">
<path d="M187.105 121.035C184.684 127.642 182.583 134.395 179.765 140.832C174.89 151.975 167.477 161.317 158.133 169.11C157.557 169.595 156.879 169.958 156.25 170.374C156.095 170.195 155.94 170.011 155.79 169.832C156.957 168.796 158.124 167.755 159.29 166.719C159.203 166.574 159.116 166.424 159.029 166.279C158.4 166.714 157.78 167.165 157.146 167.591C155.078 168.97 152.962 170.292 150.958 171.758C150.459 172.121 150.309 172.959 149.815 173.946C143.744 175.907 137.126 178.041 130.507 180.181C130.435 179.987 130.357 179.793 130.285 179.595C131.544 179.033 132.802 178.472 134.061 177.91C119.178 181.27 104.257 183.424 89.0203 180.597C93.3196 180.907 97.614 181.459 101.913 181.463C106.232 181.463 110.575 181.096 114.869 180.558C119.202 180.016 123.487 179.067 127.719 177.978C120.776 178.637 113.838 179.295 106.895 179.953C106.857 179.653 106.813 179.358 106.774 179.058C113.823 178.457 120.592 176.754 127.598 174.232C126.818 173.825 126.494 173.661 125.739 173.268C153.485 167.082 168.349 148.253 176.628 122.526C176.865 123.281 176.996 123.692 177.131 124.113C180.772 113.764 181.896 103.135 181.164 92.3307C180.976 89.528 179.935 86.7641 179.175 84.0147C177.659 78.5498 176.057 73.114 174.512 67.6587C174.299 66.9036 174.183 66.1195 174.023 65.345C174.294 65.8581 174.561 66.376 174.832 66.8891C175.137 66.6567 175.447 66.4244 175.752 66.1969C174.285 63.0215 172.813 59.8462 171.346 56.6708C171.046 56.8015 170.745 56.9322 170.44 57.0629C171.602 59.609 172.76 62.1551 173.922 64.7012C172.653 62.4455 171.385 60.1899 170.121 57.9342C168.518 55.0686 166.964 52.174 165.299 49.3472C164.364 47.7643 163.246 46.288 162.132 44.6519C160.646 44.9714 158.961 43.7661 158.095 41.8589C157.717 41.0264 156.686 40.4746 155.916 39.8356C154.086 38.3157 152.333 36.6796 150.382 35.334C145.453 31.9311 140.433 28.6589 135.436 25.3577C135.281 25.2561 134.996 25.3432 134.545 25.3432C137.136 27.1148 139.556 28.7654 141.977 30.4209C133.863 26.9551 126.411 21.8823 117.348 20.8174C119.996 21.8774 122.596 23.0827 125.303 23.9685C130.115 25.5513 134.434 27.9232 138.322 31.1663C139.45 32.1054 140.834 32.7249 142.03 33.5914C143.091 34.361 144.054 35.2759 145.056 36.123C145.216 36.4328 145.376 36.7377 145.531 37.0475C144.243 36.4908 142.96 35.9342 141.672 35.3775C141.57 35.7164 141.474 36.06 141.357 36.4424C139.687 35.4937 138.201 34.5547 136.637 33.785C135.247 33.1025 133.737 32.662 132.342 31.994C131.268 31.4809 130.362 30.4983 129.253 30.2079C126.353 29.4479 123.386 28.93 120.437 28.354C119.682 28.2088 118.878 28.3056 118.137 28.1265C115.489 27.473 112.894 26.4614 110.212 26.1274C107.718 25.8176 105.138 26.1661 102.596 26.2871C99.2553 26.4468 95.9146 26.7034 92.574 26.8534C85.9556 27.1487 74.3698 29.8594 69.3249 32.6136C73.3966 31.5584 77.4248 30.2999 81.5498 29.5109C85.7087 28.7122 89.9692 27.9087 94.1717 27.9764C98.3838 28.0394 102.577 29.172 106.794 30.3434C106.053 30.416 105.312 30.5564 104.571 30.5467C100.955 30.4886 97.3187 30.0917 93.736 30.3822C90.2646 30.6629 86.8464 31.631 83.4089 32.3038C83.0942 32.3668 82.6924 32.6378 82.4891 32.5216C79.5987 30.9049 77.2747 33.0831 74.7765 33.7463C73.3482 34.1238 72.1911 35.5857 70.7629 35.8955C62.7985 37.638 56.8676 42.9481 50.3897 47.2803C49.2809 48.0209 48.4772 49.2262 47.7316 50.354C51.1933 48.0935 54.6551 45.8378 58.1168 43.5773C58.2136 43.7225 58.3056 43.8726 58.4024 44.0178C57.1727 46.1089 56.1995 48.4178 54.6357 50.2136C53.4882 51.5254 51.5613 52.1547 49.9152 53.1276C50.1427 52.7016 50.3703 52.2805 50.593 51.8642C50.5059 51.7819 50.4187 51.6996 50.3316 51.6174C48.1141 53.5197 45.8967 55.4268 43.6793 57.3291C43.5147 57.1791 43.3452 57.029 43.1806 56.8838C44.4249 55.2816 45.6692 53.6746 46.9086 52.0724C46.6762 51.8787 46.4438 51.6851 46.2114 51.4963C44.4104 53.6358 42.4592 55.6737 40.8567 57.9487C39.4478 59.9478 38.2761 62.1551 37.2642 64.3914C35.7101 67.8281 34.2431 71.323 32.9795 74.8759C29.6049 84.3632 27.7361 94.0587 29.6243 104.161C29.8712 105.497 30.2392 106.813 30.641 108.111C30.7524 108.469 31.1881 108.73 31.4738 109.04C31.6723 108.609 32.0451 108.174 32.0354 107.748C31.9966 106.141 31.7836 104.543 31.7449 102.936C31.7352 102.544 32.1419 102.138 32.5195 101.436C33.2506 104.8 33.5944 107.525 34.4755 110.066C35.1727 112.085 36.5283 113.876 37.5838 115.773C37.7 115.981 37.8065 116.209 37.8452 116.441C38.7361 121.456 42.8756 124.52 45.1753 128.678C47.8333 133.475 52.3989 136.195 56.277 139.675C56.4367 139.554 56.5917 139.429 56.7514 139.308C55.9139 138.214 55.0763 137.12 53.9288 135.624C55.2312 135.972 56.122 136.069 56.8773 136.452C57.6423 136.834 58.262 137.507 58.9543 138.035C59.7193 138.611 60.5182 139.143 61.2686 139.743C63.4037 141.457 65.4711 143.248 67.6546 144.898C69.1555 146.036 69.6057 147.449 69.5815 149.26C69.5621 150.586 69.9204 151.917 70.148 153.539C70.0173 153.582 69.4072 153.781 68.8214 153.974C70.6951 157.227 74.4811 158.96 75.9481 162.929C74.4569 163.016 73.3531 163.079 72.041 163.157C71.9055 164.246 71.7699 165.374 71.7118 165.843C69.9301 167.194 68.4195 168.142 67.1607 169.343C65.4856 170.94 65.931 172.571 68.1533 173.244C70.9614 174.096 73.8324 174.75 76.6211 175.65C78.306 176.197 79.894 177.044 81.6757 177.823C81.574 177.915 81.2545 178.162 81.2738 178.191C82.0969 179.459 82.673 181.202 83.8544 181.855C86.1396 183.124 88.7685 183.777 91.2329 185.002C89.7756 184.803 88.3183 184.605 86.861 184.406L86.7593 184.915C88.386 185.471 90.0128 186.028 92.2932 186.807C91.1506 187.427 90.7245 187.659 90.25 187.921C90.8698 188.264 91.4653 188.593 92.8403 189.349C91.8381 189.808 91.2038 190.099 90.1677 190.578C91.8913 191.222 92.9661 191.624 94.041 192.02C94.0071 192.19 93.978 192.354 93.9441 192.524C93 192.442 92.0559 192.359 90.9182 192.258C91.9494 193.1 92.8742 193.855 93.7989 194.61C93.7747 194.765 93.7505 194.92 93.7263 195.075C91.625 194.678 89.5238 194.281 87.2483 193.855C88.0956 193.492 88.8218 193.187 89.5577 192.872C87.9213 190.2 84.9921 189.818 83.5494 192.175C84.2369 192.543 84.9147 192.906 85.1761 193.047C83.1572 193.298 80.7316 193.598 78.306 193.899C78.3011 194.15 78.2963 194.407 78.2866 194.659C80.3055 194.77 81.9516 195.878 84.3579 195.327C86.8319 194.755 89.6013 195.467 92.2399 195.612C92.2399 195.907 92.2496 196.203 92.2496 196.498C91.7412 196.624 91.228 196.75 90.4631 196.943C91.1215 197.224 91.5331 197.398 91.9494 197.573C91.9494 197.684 91.9494 197.795 91.9494 197.911C91.0392 197.868 90.0951 197.974 89.2285 197.761C85.4037 196.822 81.7289 195.665 77.5797 196.682C75.74 197.132 73.4402 195.782 71.368 195.191C68.1387 194.271 64.9385 193.26 61.6995 192.388C60.9103 192.175 60.0195 192.35 59.1771 192.345L59.2448 192.369C53.5028 187.795 47.0345 184.629 40.2176 182.141C40.1111 182.315 40.0094 182.49 39.9029 182.664C41.6023 183.85 43.413 184.9 44.9623 186.255C46.4438 187.553 49.0631 187.78 49.2713 190.622C47.2862 189.329 45.4416 188.134 43.597 186.933L43.2871 187.345C43.8003 187.833 44.3135 188.322 44.8219 188.811C44.6815 188.961 44.5362 189.111 44.3958 189.261C43.0111 187.887 41.6749 186.449 40.2224 185.147C36.3347 181.662 32.3985 178.24 28.4865 174.784C28.1912 174.522 27.707 174.193 27.7167 173.903C27.8087 169.87 24.6133 168.012 22.1732 165.819C16.8765 161.061 12.7757 155.465 9.61422 149.081C15.458 154.599 18.5807 162.668 25.7511 166.927C25.9641 166.787 26.1771 166.651 26.3901 166.511C26.0416 165.853 25.8237 165.078 25.3299 164.556C16.7991 155.475 10.4228 145.019 6.0218 133.431C1.74188 122.23 -0.591745 110.589 0.129644 98.541C0.550858 91.5223 0.817142 84.402 2.2454 77.5527C4.1578 68.3945 7.01915 59.4541 11.5702 51.1139C16.8233 41.4911 23.6789 33.209 31.5319 25.653C33.9091 23.3683 35.6036 20.4495 38.6973 18.8085C43.0354 16.5045 47.1894 13.8616 51.4112 11.3494C53.3769 10.1828 55.2602 8.87103 57.2888 7.82549C59.2787 6.79931 61.3557 5.90866 63.4667 5.16322C71.8861 2.18632 80.504 -0.0983862 89.4948 0.003264C95.416 0.0758713 101.332 0.830987 107.239 1.57158H89.7175C89.6981 1.77004 89.6787 1.96366 89.6545 2.16212C113.591 1.26179 134.87 8.38699 153.815 23.4167C153.069 23.4941 152.507 23.5522 151.66 23.6394C153.311 24.9366 154.802 26.1032 156.293 27.2746L156.216 27.1923C159.76 30.9533 163.299 34.7144 166.843 38.4754C168.659 40.402 170.479 42.3333 172.295 44.2598L173.108 47.3335C172.532 47.2367 171.961 47.1399 170.944 46.9705C172.174 48.9115 173.437 50.4895 174.256 52.2757C177.572 59.5025 181.329 66.5599 183.149 74.3967C183.285 74.9679 184.171 75.3696 184.704 75.844C183.542 77.1606 184.021 81.6235 185.561 83.1434C185.561 82.185 185.657 81.3041 185.541 80.4521C185.328 78.9032 184.984 77.3736 184.694 75.8391C184.035 74.0288 183.377 72.2136 182.719 70.4033C183.024 70.3113 183.329 70.2145 183.634 70.1225C184.447 73.143 185.265 76.1635 186.079 79.1791C186.258 79.1065 186.442 79.0339 186.621 78.9613C186.224 77.451 185.861 75.9263 185.425 74.4306C184.403 70.9454 183.343 67.4748 182.302 63.9993L182.239 64.0574C183.053 64.8512 183.871 65.6451 184.684 66.4389C184.984 67.1505 185.289 67.862 185.59 68.5736C186.161 70.8341 186.718 73.1043 187.342 75.3503C187.386 75.5003 187.972 75.4761 188.286 75.5778C189.695 76.0376 189.995 77.8189 189.4 78.1868C187.091 79.6147 188.335 81.6526 188.921 82.6933C190.412 85.3459 189.802 88.1485 190.257 90.8447C190.513 92.3936 190.305 94.0152 190.083 95.6077V92.5485H189.245C189.245 96.4064 189.458 100.279 189.192 104.117C188.829 109.393 188.102 114.645 187.536 119.907C187.396 120.28 187.25 120.648 187.11 121.02L187.105 121.035ZM27.8378 79.9826C28.0121 80.4521 28.3897 80.9555 28.3268 81.3912C27.9636 83.9228 27.3972 86.4301 27.1019 88.9714C26.913 90.5833 27.068 92.2387 27.068 93.3714C28.6318 85.8251 30.2731 77.8818 31.8078 70.4662C31.8514 70.3646 31.6723 70.7905 31.4931 71.2165C30.2779 74.1498 29.0627 77.0783 27.8426 80.0116C28.2832 78.0948 28.4042 76.0279 29.2321 74.295C31.6093 69.3239 33.9526 64.2849 36.9302 59.6719C38.8765 56.6515 40.0191 52.7791 44.0134 51.264C45.4513 50.717 46.7924 49.4537 47.7559 48.1903C51.8857 42.769 57.3373 39.0853 63.2294 35.9293C64.7158 35.1355 66.1876 34.3078 67.6643 33.4994C67.5577 33.3203 67.4512 33.1412 67.3399 32.9621C60.6731 36.002 54.3984 39.6856 48.6177 44.4534C49.1018 43.6451 49.5908 42.8416 50.075 42.0332C47.6203 45.0924 43.1564 46.3412 42.2171 50.7993C42.13 51.2204 41.0939 51.8449 41.0649 51.8158C39.8787 50.596 39.6511 52.0336 39.2832 52.5225C33.3232 60.5045 28.6947 69.1351 26.8017 79.0194C25.8818 83.826 25.1556 88.6713 24.3373 93.4972C24.5455 93.5311 24.7586 93.565 24.9667 93.5989C25.233 91.8031 25.4073 89.9927 25.7946 88.2211C26.395 85.4572 27.1454 82.7272 27.8281 79.9778L27.8378 79.9826ZM42.4592 44.7778C42.2268 44.497 41.9944 44.2211 41.762 43.9403C46.4148 40.1115 51.0626 36.2779 56.0543 32.1683C48.8888 33.8334 31.6045 51.9756 29.145 60.7901C30.6894 58.6119 31.9967 56.7434 33.3232 54.8944C34.6353 53.0695 35.9716 51.2592 37.2933 49.444C37.3853 49.5263 37.4773 49.6086 37.5644 49.6908C33.9817 56.2158 30.3941 62.736 26.8114 69.2609C27.1261 69.4594 27.4456 69.6627 27.7603 69.8612C33.3426 56.1723 42.7207 45.4845 53.7981 36.0358C49.523 38.3205 45.9403 41.4862 42.4544 44.7826L42.4592 44.7778ZM74.6119 180.699C74.5054 178.259 71.5181 175.911 67.9209 174.996C67.6401 175.897 67.3641 176.773 66.9913 177.964C69.3927 178.825 71.9539 179.745 74.6119 180.699ZM178.347 67.862C178.119 67.9104 177.892 67.9637 177.659 68.0121C179.165 74.8226 180.671 81.6332 182.176 88.4438C182.389 88.3954 182.607 88.347 182.82 88.3034C181.329 81.4928 179.838 74.6774 178.342 67.8669L178.347 67.862Z" fill="white"/>
</svg>
