<svg width="50" height="50" viewBox="0 0 50 50" fill="none" xmlns="http://www.w3.org/2000/svg">
<path d="M5 3C17.012 3 29.024 3 41.4 3C41.4 7.0656 41.4 11.1312 41.4 15.32C40.5333 16.2 40.5333 16.2 37.8792 16.255C37.039 16.2368 36.1989 16.2187 35.3333 16.2C34.9043 12.7152 34.9043 12.7152 34.4667 9.16C32.1736 9.13637 29.8807 9.11885 27.5875 9.105C26.9334 9.09763 26.2793 9.09025 25.6053 9.08266C23.9367 9.07506 22.268 9.11403 20.6 9.16C18.9179 10.868 19.3874 13.9762 19.2458 16.255C19.1732 17.3905 19.1006 18.526 19.0258 19.6959C18.947 21.0146 18.947 21.0146 18.8667 22.36C22.0127 22.0696 25.1587 21.7792 28.4 21.48C28.686 19.7376 28.972 17.9952 29.2667 16.2C30.9827 16.2 32.6987 16.2 34.4667 16.2C34.4667 21.7176 34.4667 27.2352 34.4667 32.92C32.7507 32.92 31.0347 32.92 29.2667 32.92C28.8377 30.742 28.8377 30.742 28.4 28.52C25.254 28.2296 22.108 27.9392 18.8667 27.64C18.9882 29.6753 19.1157 31.7102 19.2458 33.745C19.3162 34.8782 19.3866 36.0115 19.4591 37.1791C19.4293 39.837 19.4293 39.837 20.6 40.84C22.4211 40.9509 24.2464 40.9947 26.0708 41.005C27.5673 41.0237 27.5673 41.0237 29.094 41.0428C31.7834 40.8461 33.187 40.696 35.3333 39.08C36.489 37.1815 36.489 37.1815 37.2833 35.01C37.5738 34.2908 37.8643 33.5716 38.1635 32.8306C38.3736 32.2793 38.5836 31.728 38.8 31.16C40.516 31.16 42.232 31.16 44 31.16C43.5284 37.1938 42.5325 40.9103 40.5333 47C28.8073 47 17.0813 47 5 47C5 45.2576 5 43.5152 5 41.72C7.002 41.1392 9.004 40.5584 11.0667 39.96C11.0667 30.0864 11.0667 20.2128 11.0667 10.04C9.06467 9.4592 7.06267 8.8784 5 8.28C5 6.5376 5 4.7952 5 3ZM6.73333 4.76C6.73333 5.3408 6.73333 5.9216 6.73333 6.52C8.73533 6.8104 10.7373 7.1008 12.8 7.4C12.8 19.016 12.8 30.632 12.8 42.6C9.797 43.0356 9.797 43.0356 6.73333 43.48C6.73333 44.0608 6.73333 44.6416 6.73333 45.24C17.0293 45.24 27.3253 45.24 37.9333 45.24C40.813 39.8566 40.813 39.8566 40.2625 36.935C39.9676 36.2544 39.9676 36.2544 39.6667 35.56C39.2734 36.5582 38.8802 37.5565 38.475 38.585C37.0667 41.72 37.0667 41.72 35.3333 42.6C34.0147 42.6737 32.693 42.6944 31.3724 42.6859C30.596 42.6831 29.8195 42.6803 29.0195 42.6773C27.8012 42.6663 27.8012 42.6663 26.5583 42.655C25.33 42.649 25.33 42.649 24.0768 42.643C22.0512 42.6326 20.0256 42.6168 18 42.6C17.714 37.0824 17.428 31.5648 17.1333 25.88C23.1393 26.3156 23.1393 26.3156 29.2667 26.76C29.8387 28.212 30.4107 29.664 31 31.16C31.572 31.16 32.144 31.16 32.7333 31.16C32.7333 26.804 32.7333 22.448 32.7333 17.96C32.1613 17.96 31.5893 17.96 31 17.96C30.428 19.7024 29.856 21.4448 29.2667 23.24C25.2627 23.5304 21.2587 23.8208 17.1333 24.12C17.4193 18.6024 17.7053 13.0848 18 7.4C20.853 7.35268 23.7052 7.31767 26.5583 7.29C27.3705 7.27525 28.1827 7.26051 29.0195 7.24531C29.796 7.23964 30.5724 7.23397 31.3724 7.22812C32.0895 7.21891 32.8066 7.20969 33.5454 7.2002C35.3333 7.4 35.3333 7.4 37.0667 9.16C37.4113 10.9096 37.7061 12.6707 37.9333 14.44C38.2193 14.44 38.5053 14.44 38.8 14.44C38.8 11.2456 38.8 8.0512 38.8 4.76C28.218 4.76 17.636 4.76 6.73333 4.76ZM40.5333 32.92C41.4 35.56 41.4 35.56 41.4 35.56L40.5333 32.92Z" fill="white"/>
</svg>
