<?xml version="1.0" encoding="UTF-8"?>
<svg id="Calque_1" data-name="Calque 1" xmlns="http://www.w3.org/2000/svg" viewBox="0 0 201 402">
  <defs>
    <style>
      .cls-1 {
        fill: #fff;
      }
    </style>
  </defs>
  <path class="cls-1" d="M93.99,20.43c36.17-2.53,68.74,20.09,80.93,53.76,4.44,12.27,3.84,19.4,4.1,32.1,1.33,65.28,1.31,131.17,0,196.47-.18,9.06.52,15.97-1.77,24.95-7.51,29.45-36.5,57.2-66.61,62.32-38.01,6.46-77.31-23.81-87.95-59.39-4.67-15.62-2.88-35.02-3.05-51.43-.55-51.13-.37-102.51-.38-153.59,0-20.64-1.36-37.59,6.98-57.02,11.43-26.64,38.72-46.14,67.76-48.17ZM98.91,22.53c-39.86.44-73.72,32.9-76.85,72.48v220.44c4.17,42.43,48.68,81.38,91.95,71.28,31.96-7.46,60.02-38.66,62.93-71.63V94.31c-3.38-39.37-38.27-72.22-78.03-71.78Z"/>
  <path class="cls-1" d="M157.26,159.88c-.37,2.3-2.73,3.6-3.71,5.6-2.78,5.69,1.29,13.74.46,19.79-.44,3.24-4.68,10.1-8.15,10.47-1.55.17-3.9-.98-4.58.71-.19.46.57,4.56.55,5.8-.02,1.4-.19,4.66-.39,5.94-.6,3.82-5.93,2.45-8.54,2.7-1.35.13-5.39.58-3.5,2.45,3.63-.99,14.32-1.8,15.77,2.76.36,1.13-.28,2.44-.04,2.83.93,1.5,7.24,4.08,8.78,5.99,2.61,3.22,2.94,9.99,6.85,12.82-1.09,1.38-2.45,2.13-1.93,4.05.25.93,2.58,4.37,3.34,5.1.84.81,3.51,1.9,3.54,2.11.25,1.45-2.34,2.46-3.52,2.64,1.72,5.49,4.75,10.85,8.43,15.28.1.66-.08.45-.46.62-2.2,1-4.61-3.81-7.77-1.81-1.54.97-.59,2.73-.76,3.88-.19,1.31-1.06,2.62-.8,3.91.2.95,1.28,1.52,1.54,2.35.41,1.29-.21,2.82.54,4.03.58.92,3.06,2.08,4.02,3.01,1.03,1,4.38,7.04,4.65,8.35.37,1.83-.23,3.71.71,5.62.47.96,2.7,2.64,2.53,3.78-.18,1.22-2.96-.86-3.69-.9-1.66-.1-2.86,1.87-4.03.56.31-1.48,2.4-3.33,1.96-4.76-.76-2.46-6.69-5.14-7.45-8.78-.14-.65.21-1.19.04-1.75-.3-.96-2.23-2.44-2.94-3.75-1.71-3.17-1.21-4.2-1.6-7.18-.26-2.01-3.03-4.13-.91-6.49-1.22-1.15-3.05-.31-4.56-.88-.08-1.4,2.39-1.99,2.48-2.99.12-1.32-3.32-3.85-3.51-6.72-.15-2.14,1.29-4.12,1.35-5.96.09-2.98-2.35-7.21-2.97-10.32-.23-1.14.05-2.49-.15-3.28-.06-.22-2.83-2.98-3.19-3.21-2.72-1.81-2.15,3.58-2.1,5.26.2,6.56,1.77,13.14,2.12,19.67.2,3.73-.14,7.46-.28,11.18,2.86,3.15,8.91,6.6,9.73,10.99.63,3.37-.18,10.23,1.13,12.58.53.94,1.95,1.55,2.04,2.82l-2.96,1.95.88,4.94h-3.87c-.58,1.98.63,2.46,1.14,3.61.93,2.07-1.43,1.53-1.79,2.6-.44,1.32.57,2.38.6,3.45.05,2.01-1.82,3.35-2.04,4.96-.18,1.36.66,2.73.52,3.35-.24,1.04-2.61,3.41-3.26,5.14-1.46,3.87-.62,7.43-2.74,11.32-3.29,6.02-10.84,10.77-17.35,12.51-2.19.58-8.61,2.36-8.43-1.23,1.93-.3,7.09-.29,6.52-3.19-.34-1.74-4.81-.62-5.29-2.43.35-.79,5.28-2.13,6.32-2.13,3.06,0,5.96,2.41,9.4,1.7,2.47-.51,6.18-4.55,6.23-7.12.01-.66-.45-1.25-.31-2.03.23-1.23,1.76-1.93,1.68-3.89-.17-4.12-3.53-6.49-6.64-8.52,1.77-2.08.57-2.72.36-4.58-.23-2.05-.23-2.51-.63-4.62-1.06-5.51,6.68-11.01,9-15.78,1.27-2.6,2.74-6.88-.5-8.59-2.21-.2-3.28,6.05-4.07,7.88-5.11,11.82-21.49,27.14-33.66,31.33-3.57,1.23-4.17.94-7.72,0-17.99-4.76-34.15-20-39.74-37.72l-1.69-.25c-.48.33-.29.54-.27.96.3,5.35.35,11.6,3.79,15.91,2.02,2.53,5.24,3.59,6.73,6.62,1.27,2.6,1.31,5.33,1.78,8.06.22,1.23,1.25,3.11.79,4.12-.71,1.57-4.06.82-5.46,4.39-1.58,4.04-.67,11.24,2.66,14.24,5.28,4.77,5.6,1.5,9.89-.63,3.13-1.55,5.35.23,8.54.64-.6,2.05-2.87,1.55-4.57,2.29-1.42.63-.57,1.44.46,1.99,2.11,1.13,5.11-.18,4.46,3.45-6.47-1.03-11.99,1.15-17.56-3.33-2.31-1.86-7.33-8.05-8.15-10.82-1.12-3.77.76-7.76-2.5-11.38-.58-.65-1.99-1.19-2.27-2.13-.34-1.13.37-2.07.32-3.09-.08-1.5-1.6-2.31-2.29-3.36-.51-.76-1.9-3.9-2.76-3.81-.76.08-1.66,1.23-3.05.31-.54-.72,3.71-2.93,2.13-5.39-.98-1.52-4.16,1.06-5.64.11-.19-1.69,1.47-2.4,2.26-3.53,2.22-3.17,1.52-5.05-2.61-4.55-.48-.44,2.09-3.14,2.37-3.77,1.05-2.32-.3-4.06-.29-6.24,0-1.53,1.09-2.9,1.09-4.22,0-1.86-1.44-2.42-.62-4.82,1.39-4.1,8.75-6.67,9.03-9.6-1.97-9.41,1.2-18.77,1.76-28.11.11-1.88.3-6.43,0-8.08-.36-1.95-3.04.2-3.98.94-3.01,2.37-1.76,2.17-2.5,5.23-.85,3.52-3.37,7.15-3.9,10.51s.18,6.79-.2,10c-.2,1.75-2.08,5.17-2.05,6.02.03.91,2.89,3.54,2.44,4.04l-4.21.36c.64,2.11-.73,3.73-1.33,5.53-.25.76-.06,1.6-.47,2.7-1.23,3.29-6.27,5.96-8,9.57-1.13,2.38-.85,4.46-1.54,6.54-.27.82-1.14,1.33-1.3,2.23-.37,2.1,1.48,3.3,1.04,5.42-1.58.08-2.59-1.64-4.21-.88-.49.23-2.58,2.77-3.13.63-.25-.96,1.36-1.84,1.87-2.59,2.18-3.2-.5-3.23-.52-5.42-.01-1.18.88-2.14,1.05-3.19.26-1.67-.36-3.73.29-5.34.69-1.71,7.25-4.93,9.05-6.75,2.45-2.47,3.79-6.61,1.33-9.45-1.83-.5-3.3.52-4.94.91-.75.18-1.57-.02-2.3.15-1.07.26-1.53,1.54-3.05.81-2.05-.98,1.66-2.92,2.45-3.86,1.67-2,5.97-11.29,6.51-13.87.61-2.9-1-.87-1.28-3.13l-3.12.31c.05-.47-.12-1.09,0-1.51.08-.29,3.99-2.59,4.93-3.58,1.65-1.75,3.16-4.46,3.5-6.86l-.99-.04c-.08-1.1-.19-1.92-1.46-2.07v-.69c3.3-1.24,3.6-5.32,5.32-7.86.66-.97,2.08-1.85,2.48-2.79.38-.88.17-1.84.8-2.72,1.19-1.68,6.9-2.69,8.4-4.59,1.09-1.38.07-3.8,1.96-5.07,1.79-1.2,6.4-1.01,8.59-.89,1.21.07,7.62,1.52,7.9.17-1.92-3.86-10.33-.23-12.67-3.48-1.08-1.5.49-3.69.69-5.34.35-2.85.37-6.62-1.72-8.77-3.3.62-6.67,1.51-10.02.56-3.54-1-2.69-3.79-5.1-5.44-1-.68-1.64-.25-2.5-1.71-3.81-6.46,2.83-13.97,2.15-19.73-.34-2.87-5.7-7.95-5.59-8.47.36-1.66,5.12,1.41,5.84,1.48,2.53.24,1.79-2.4,1.29-4.06-1.12-3.69-3.15-3.35-5.65-5.23-.44-.33-.58-.15-.43-.98.51-1.21,6.21.44,6.61-2.4-.8-1.89-2.47-3.25-2.05-5.51l3.61.65c.57-.15,2.73-2.87,2.91-3.44.69-2.19-.63-3.32-.54-4.75.08-1.18,1.74-2.23,2.02-3.62.15-.77.42-3.67.4-4.46-.06-2.26-2.63-5.56-2.42-7.73.11-1.15,1.33-2.18,1.6-3.35.45-1.93-.23-3.58.78-5.54,1.48-2.88,3.35-1.98,5.59-2.84,1.08-.41,2.45-1.88,3.5-2.48,2.17-1.24,8.63-3.65,9.24-.07-2.05.62-8.79.69-8.8,3.68,0,1.05.85,1.69.41,2.83s-2.32,2.5-3.13,3.92-2.48,5.45-2.83,7.01c-.66,2.91.71,6.04.28,9.07-.24,1.7-1.59,3.5-1.92,5.11-.61,2.97,1.41,6.12,4.76,5.29-.04,1.91-1.17,2.64-1.08,4.75.23,4.89,2.2,4.77.47,10.98-1.26,4.52-2.56,7.66-3.69,12.48-.44,1.9-2.56,5.62-1.13,7.28.95,1.1,2.54.52,3.77.8,1.42.32,3.42,1.85,4.82,1.16.73-.36,2.99-5.64,3.71-6.83,1.69-2.78,4.44-6.17,7.05-8.05,2.08-1.5,6.84-3.23,7.42-5.94.26-1.22-.25-2-.19-3,.08-1.28.81-3.81,1.21-5.12.25-.79.94-1.4,1.09-2.08.94-4.11-6.27-6.63-8.36-9.42-.91-1.22-1.49-2.94-2.37-4.31-.41-.63-1.12-.81-1.42-1.39-.89-1.74.24-6.55-.11-9.03-.31-2.16-4.13-6.37.38-7.44,1.59-.38,3.12,2.31,3.8,3.61,2.71,5.22,1.83,8.29,1.14,13.68-.57,4.47,3.18,4.95,5.76,7.18,1.9,1.65,2.05,3.95,5.14,2.6,2.16-8.3,4.37-17.03,4.87-25.64.2-3.5-.19-7.06-.01-10.56.51-10,2.82-25.16-1.03-34.44-2.2-5.3-6.59-4.53-9.85-8.07-1.55-1.68-2.32-3.99-3.71-5.78-2.15-2.77-5.8-5.09-9.04-6.42-1.63-.67-7.31-1.83-7.8-2.75v-1.07c4.25-2.08,9.46-1.28,13.54.89,2.65,1.4,5.11,4.43,8.39,2.96-.09-4.61-4.72-7.17-6.03-11.29-.49-1.54-1.2-4.37,1.25-4.08,1.52.18,2.01,3.21,2.65,4.39,1.46,2.73,3.6,3.4,5.52,5.37,3.04,3.13,3.81,7.82,7.42,10.5,5.57,4.15,9.94,1.66,12.89-3.85.76-1.42,1-2.98,1.98-4.35,1.74-2.44,5.68-4.11,7.18-6.52.87-1.4.93-3.66,1.84-5.17,1.07-1.79,2.52.84,2.47,2.46-.21,6.47-7.71,9.24-8,13.1-.04.52-.09,1.47.34,1.78,1.53,1.12,7.29-4.35,8.83-5.27,2.76-1.65,11.64-4.1,14.22-1.99,2.89,2.37-4.64,3.1-5.75,3.43-9.42,2.89-8.83,9.5-15,14.51-1.44,1.17-3.31,1.91-4.7,3.03-6.81,5.47-3.69,21.75-3.19,29.5.93,14.78,1.34,29.76,5.29,44.1.66-.62,1.4.36,1.74.22.71-.29,2.79-3.92,3.69-4.77,1.26-1.2,5.39-2.9,5.96-4.23.78-1.83-.61-3.04-.51-4.37.06-.77.73-1.29.71-2.46-.06-3.85-.97-2.91.98-7.11,1-2.16,3.77-7.56,6.58-4.01,1.52,1.93-1.35,4.35-1.92,6.57-.25.96-.81,4.36-.77,5.23.05,1,.78,1.62.75,2.8-.13,5.17-8.17,7.66-11.08,11.09-1.52,1.79-2.5,4.25-3.25,6.45.12,1.56,3.49,3.96,3.98,5.86.53,2.04-1.06,2.82,1.06,5.59,2.48,3.24,8.53,5.17,12.09,9.34,2.15,2.52,3.81,7.31,5.38,8.85,1.94,1.91,6.24-.98,7.78-2.7,1.06-8.55-8-15.14-8.6-23.02-.11-1.5.39-2.63.36-3.85s-1.98-4.95-.34-4.96c.72,0,2.68.16,3.14-.75.39-.77.57-4.35.87-5.73,1.76-7.94,5.45-15.27.83-23.32-1.44-2.5-1.27-1.85-2.22-4.81-.86-2.67-4.16-2.84-6.5-3.16-.44-.42,1.24-1.79,1.73-1.95,3.69-1.15,7.01,2.76,9.74,4.7,2.97,2.11,3.46.84,4.65,5.19,1.09,3.96.15,4.49-.29,8.1-.07.58.35,1.21.26,1.98-.15,1.24-1.47,2.31-1.68,3.63-.37,2.37,0,5.78-.45,7.98-.33,1.6-2.35,2.81-2.37,4.27-.02,1.73,2.39,1.53,2.75,2.92.26.99-1.1,3.04.4,3.79s3.89-1.41,5.62-.53c-.11,2.09-2.95,2.82-3.18,5.09-.14,1.3.58,6.51,2.31,6.51h5.09ZM126.1,228.35c-.67-.72-.07-2.87-1.74-3.36-1.35-.39-2.49.47-3.7.22-1.67-.34-2.28-2.57-4.73-1.07-2.1,1.29-1.08,4.08-1.78,5.95-.15.4-3.78,5.16-4.1,5.4-.22.17-.4.33-.7.3-4.28.06-5.5-4.82-9.33-4.9-.38,2.86,3.42,4.03,4.51,5.85.62,1.03.48,2.36,1.27,3.3,1.92,2.29,3.23-1.52,4.24-.02.49,1.26-.47,2.19-.04,3.54.34,1.05,2.07,2.4,2.61,3.38.93,1.68,1.02,4.42.31,6.18-.6,1.47-1.65,1.04-2.55,1.66-1.12.77-3.68,3.87-3.95,5.19-.6,2.97.8,3.98-2.56,6.22-2.23,1.49-3.49.54-5.69.98-1.06.22-2.31,1.29-3.63,1.64-2.01.53-4.41.03-5.86.46-.52.16-2.38,2.16-2.56,2.73-.34,1.12.2,1.69.13,2.57-.23,2.79-2.99,3.96-1.57,8.06.83,2.39,3.27,1.98,5.16,2.91.88.44,1.29,1.15,2.01,1.51,1.22.61,3.02.47,4.15,1.48.7,1.15-1.22,4.85-2.12,5.63-1.19,1.03-2.87-.66-4.03-1.05l.35,1.4c-2.97.6-4.72,2.98-8.23,2.44-1.05-.16-2.86-1.78-3.31-.07-.75,2.89,4.6,3.13,5.41,4.67.76,1.44-2.03,2.56-1.55,4.31l5.39,6.57,1.81-3.18c3.88.35,5.78.22,5.77,4.77,0,3.52-2.49,6.01-6,4.75-.21.23.25,2.07.54,2.44.9,1.18,11.42,3.77,13.42,4.87,1.74.35,9.97-3.81,10.21-5.08l-1.17-1.55c-1.34.62-1.93,2.11-3.69,1.78-.27-1.12.72-1.94.69-2.95-.04-1.37-1.57-3.03-1.64-4.31-.16-2.97,5.48-3.5,6.13-7.06.95-5.15-2.89-6.32-3.05-10.96l6.4-.66,3.94,3.36c.49-.04,1.72-1.97,2.29-2.21.77-.32,2.12.75,3.35-.14.49-.35,1.5-2.72,2.1-3.53.35-.48,1.14-.65,1.22-.96.5-1.96-1.13-4.27-2.64-5.38-2.77-2.02-2.03-.32-3.78.44-2.03.88-2.46-1.82-3.41-3.08-2.48-3.28-3.82-1.21-6.69-2.09-.97-.3-1.49-1.51-2.1-1.78-.41-.18-.97.14-1.63-.07-1.07-.34-1.97-1.73-3.16-1.77-1.31-.04-2.25,1.74-4.41,1.23-.91-.21-2.41-1.93-2.41-2.9,0-1.24,3.9-5.23,4.98-5.96,3.01-2.01,5.57-.16,8.4-4.24,1.87-2.69-.42-8.02.4-9.27.1-.16,1.4-.32,1.9-.73.61-.5.66-1.52,1.1-1.8,1.1-.7,3.65.24,4.2-1.72.39-1.4-1.74-1.52-1.92-1.82-.24-.4.13-1.77-.45-2.89-.73-1.41-4.37-2.76-2.59-5.15,1.58-1.42,4.37,1.07,5.57.67,1.91-1.68,2.89-4.63,6-4.19.91.13,1.05,1.28,2.45,1.08,3.47-.5.63-9.21-1.22-10.72-.66-.54-2.34-.93-2.71-1.33ZM97.57,230.89c-.85-8.01-9.91-.92-7.91,4.23,3.35,1.17,4.23-5.81,7.91-4.23ZM88.78,241.44l-3.98,2.08c-.85-.24-2.15-5.49-3.39-6.14-1.02-.53-2.55,1.08-3.71,1.24s-2.15-.36-3.3-.34c-.18.8.55,1.27.68,1.95.64,3.31-2.84,3.73-2.79,5.62.02.85,3.49,3.45,3.8,4.99.34,1.7-2.49,2.96-.5,5.03,1.18,1.22,2.13.13,3.1.38.86.22,2.29,2.78,3.17,2.71,2.79-.24,2.48-4.41,3.64-4.81,2.12-.74,5.37,1.92,6.03,1.64.07-.03,1.01-1.16,1.04-1.24.2-.49.07-1.18.35-1.77.36-.77,1.13-1.45,1.32-1.87.32-.73-.87-4.38-1.36-5.3-.18-.34-1.59-2.29-1.79-2.43-.81-.58-2.25-.19-2.31-1.74ZM125.64,279.41c.11.08.71,1.82,1.27,2.43,1.98,2.17,2.72.31,4.51.39,1.24.06,2.77,1.53,4.09.18.64-.66.51-1.61.88-2.28.65-1.18,2.12-1.12,1.37-3.17-.37-1.01-2-2.04-2.2-2.72-.29-.99.15-2.02-.34-3.18-.44-1.05-1.52-1.24-1.99-1.87-.49-.67-.32-1.67-1.27-2.24-1.33-.8-4.34.13-5.95-.19l.35,1.05c-1.99-.81-2.56,2.21-4.92,1.06l.17.7c-.43,0-.94-.2-1.26.21-.54.69-2.45,6.45-2.07,6.81.69.1,3.04.16,3.45.42.25.16.88,2.42,1.71,2.7s2.03-.43,2.2-.3Z"/>
  <path class="cls-1" d="M108.91,290.2c-.76-.96-.29-2.39-.54-3.51-.3-1.35-1.24-2.63-.93-4.09,6.05-.95,7.82,4.62,4.89,9.31-.55.35-3.06-1.27-3.41-1.71Z"/>
</svg>