<?xml version="1.0" encoding="UTF-8"?>
<svg id="Calque_3" data-name="Calque 3" xmlns="http://www.w3.org/2000/svg" viewBox="0 0 828 1442">
  <defs>
    <style>
      .cls-1 {
        fill: #fff;
      }
    </style>
  </defs>
  <path class="cls-1" d="M568.49,46.28c4.11,1.9,8.17,1.96,12.83,3.29,80.69,22.95,150.16,82.75,187.47,157.37,10.52,21.04,17.83,42.41,22.89,64.84,1.97,8.71,5.13,19.13,6.57,29.21.69,4.79-1.62,10.6,1.76,14v832.47c-3.3,2.96-1.11,7.47-1.68,11.59-7.59,54.62-30.4,108.14-68.01,153.33-44.01,52.88-113.42,100.01-180.31,113.96-31.21,6.51-68.98,6.4-100.22,0-82.29-16.85-173.07-86.25-214.07-163.09-8.61-16.14-14.52-33.09-20.55-49.88-2.56-7.14-7.42-21.19-8.68-28.74-2.35-14.1-4.25-29.93-6.7-43.81V321.62c1.95-9.58,3.24-20.61,5-30.65,18.89-107.37,92.35-199.29,198.78-236.43,12.67-4.42,27.86-7.57,42.83-10.21,36.83-6.5,75.05-6.76,111.89.07,1.73.32,9.7,1.67,10.17,1.89ZM578.44,56.23c-.54-.24-6.15-1.28-7.88-1.69-38.12-9.09-78.41-11.38-117.43-5.16-18.16,2.89-44.26,10.32-59.86,16.82-88.05,36.71-150.13,108.07-175.79,198.47-.92,3.24-1.31,8.83-1.96,11.23-.31,1.14-2.14,1.75-2.41,3.53s.89,3.79.67,4.84c-.18.88-1.61,1.54-2.04,2.71-.46,1.24.48,4.04.11,5.36s-1.68,2.06-1.99,3.67c-.55,2.86.89,6.75.6,8.16-.2.99-1.92,1.59-2.29,3.42-1.16,5.78,2.04,11.95-1.71,17.36l-.02,811.73c2.73,9.08,1.6,18.91,3.38,28.12.35,1.82,2.09,2.43,2.29,3.42.26,1.26-1.12,4.08-.64,6.52.36,1.82,2.11,2.46,2.3,3.43.25,1.29-1.2,3.24-.5,5.54s3.17,7.23,3.84,9.46c3.4,11.4,5.89,21.99,10.21,33.55,30.47,81.62,103.95,147.48,183.63,180.04,10.92,4.46,24.68,8.66,37.76,11.55,33.2,7.36,66.06,8.33,99.65,1.4,13.89-2.87,24.81-8.71,35.85-11.54,33.93-8.7,84.41-44.89,110.52-68.39,57.17-51.45,91.2-123.22,98.64-197.31l.02-823.34c-10.4-113.3-87.73-219.65-198.85-257.91-5.79-1.99-11.44-2.94-16.1-5Z"/>
  <path class="cls-1" d="M118.66,1309.47c2.62-.79.78-2.81.9-4.46.44-6.07-.62-13.56-.07-19.13.15-1.49,1.87-2.47,1.74-5-.16-3.11-2.49-2.67-2.49-3.27-.02-1.79.45-9.05.76-10.81.44-2.5,3.17-2.29-.03-3.45l-.53-31.66c-1.57-3.25-9.13-10.04-8.16-13.36,1.65-4.12,6.38-3.36,10.1-4.86,5.63-2.27,11.88-7.62,17.57-9.62.53-.19,4.69-.49,5.35-.42,3.73.35,10.73,3.81,11.09,7.94.2,2.29-2.59,5.4-3.36,7.9-3.86,12.52-5.02,24.51-5.13,37.58-.05,5.69,1.25,11.64.41,18.22-.65,5.1-3.45,11.39-4.08,16.66-.31,2.57.7,4.73.53,6.46-.18,1.84-2.65,4.21-2.91,6.09-.89,6.46-2.29,18.27-2.44,24.51-.33,14.37,10.64,18.93,12.46,30.61.24,1.52-.92,9.44-1.49,10.6-1.76,3.56-6.48.07-7.92,1.18-1.29,8.1-2.06,5.28-7.18,7.77-4.22,2.06-2.03,4.96-3.09,8.51-1.41,4.68-6.63,4.39-9.63,1.25-.85-.88-4.06-8.12-4.5-9.59-1.97-6.58-.5-6.55-4.43-12.98-10.45-17.13-20.31-34.44-30.81-51.26-1.25-2.01-4.03-2.18-2.49-5.39l-2.9.06c-1.5-4.84-2.16-8.58-6.6-11.72-1.21-.86-2.68-.49-3.53-1.01-.93-.57-3.29-5.37-4.37-6.59-3.22-3.67-6.99-7.03-10.37-10.57-7.6,9.46,5.17,19.15-2.82,27.05,5,5.64.6,7.76.08,11.67-.28,2.06,1.46,4.77.57,7.19-.55,1.5-2.42.91-3.28,1.9-.46.54-3.35,7.54-3.3,8.07.03.34,3.58,1.36,3.18,5.68-.37,3.96-4.75,4.74-5.43,7.86-1.06,4.86-.44,11.79-.95,16.4-.21,1.87-1.48,2.93-1.77,4.91-.46,3.21,1.83,14.45-.91,16.09-.72.43-2.4-.12-3.48.25-.29.1-3.15,2.26-4.96,3.17-.55.27-.47,1.66-1.04,1.68-3.08.11-7.47-2.27-8.99-5.05-1.79-3.28-2.59-18.67-2.14-22.73.51-4.65,3.81-10.52,4.78-15.11,5.69-26.98,8.8-58.52,9.34-85.99.1-5.07-1.36-10.06-.03-14.54-1.93-.03-4.54.2-5.85-1.42s-5.26-14.2-6-16.99c-1.66-6.27-2.42-11.39-2.4-17.66,0-2.28-1.76-4.63.59-7.03,3-3.08,7.99.59,12.36-.06,2.51-.38,4.54-2.5,6.87-3.08,6.14-1.54,13.9-.33,18.46,4.38,5.44,5.62,1.92,7.58,2.11,13.27.08,2.35,4.8,11.53,6.32,13.95,11.87,18.89,30.39,39.74,44.14,57.82,4.23,5.57,8.67,12.06,12.1,18.17Z"/>
  <path class="cls-1" d="M108.53,916.68c.61.46.7,2.85,1.48,3.92,1.99,2.73,5.09,4.27,6.35,7.75,1.86,5.12,1.02,11.79,2.86,17.03,2.23,6.33,5.01,6.44,6.05,15.51,2.32,20.31.67,38.57,4.37,59.47,3.45,19.52,8.88,34.62,15.95,52.86.65,1.69,2.32,2.97,2.73,4.73,1.41,6.05-3.08,10.7-2.76,12.73.48,3,6.69,10.42,5.92,13.24-1.15,4.2-7.61,5.22-10.78,3.21-3.19-2.02-2.79-7.64-4.04-9.64-.83-1.33-5.93-3.25-7.26-4.75-1.65-1.86-1.95-7.97-4.96-4.17-2.47,3.12-2.48,5.33-3.7,8.71-3.5,9.77-12.62-4.85-10.37-8.55.53-.88,2.89-.27,1.11-3.71-1-1.94-4.27-1.25-4.32-4.05-.04-2.2,2.43-1.18,2.38-2.76l-3.59.03-1.33-2.12,5.26-2.82c1.74,2.43,5.52,5.03,3.81,8.21l3.29-1.23c-2.65-3.19-2.58-7.32-3.3-11.2-1.32,1.02-3.78.44-4.78,1.03-1.65.99-1.65,4.74-5.05-1.55s.25-8.37-.33-11.57c-.15-.83-1.84-.71-2.25-1.8-.33-.89-4.08-16.35-4.13-17.24-.07-1.14,1.72-4.96-.82-4.1l-4.1,1.15-.94-2.73c-.05-1.18,4.38-.41,3.34-2.98l-20.71.83c2.91,8.16-3.4,7.82-9.45,9.05-1.31,3.08-3.35,4.45-4.79,7.8-4.8,11.16-5.49,24.5-8.53,36.24-1.57,6.06-4.33,14.01-11.88,12.18-3.6-4.11.79-9.53-5.96-10.55l-3.74,10.76c-1.05-1.81-4.18-1.7-5.19-2.67-.62-.6-.72-2.25-1.44-3.11-1.32-1.57-3.75-1.69-3.33-4.55.14-.93,1.22-1.95,1.51-3.07,3.27-12.88,6.26-26.47,9.87-39.05.48-1.66,7.61-10.16,6.45-11.36-4.78.67-25.11,5.59-19.7-4.38,2.85-5.25,20.84-5.81,26.39-9.47,3.43-6.05,5.92-12.64,9.22-18.75,4.74-8.79,8.36-16.68,12.66-25.47,3.69-7.54,8.62-14.74,12.7-22.08-1.31-5.56-5.25-8.8-10.6-10.23,1.17-2.04,1.69-6.14,3.28-7.73.74-.74,1.9-.3,2.58-1.08,1.07-1.23,3.33-6.37,4.95-7.32,1.4-.82,3.55-.27,5.29-1.35,1.6-.99,5.09-4.66,7.35-5.99,3.9-2.31,5.35-.69,8.51-.94,1.94-.15,5.76-2.35,8.5-.29ZM89.63,974.55c-2.21-.42-1.44.48-2.02,1.66-2.1,4.26-3.33,9.38-5.29,13.82-3.42,7.73-7.74,14.9-10.92,22.65l21.55-1.65c-1.23-12.08-4.83-24.38-3.32-36.47Z"/>
  <path class="cls-1" d="M57.86,654.81c.5.54.47,1.89,1.1,2.59,5.04,5.68,8.17,8.17,9.73,16,2.23,11.23,1.35,28.59-.46,39.79-.42,2.6,1.66,4.88-1.79,7.24.57.8,1.08,1.08,2.05,1.25,13.18,2.27,32.27-5.98,45.67-7.39,2.49-1.93,1.7-20.3.34-23.54-.47-1.11-3.3-.65-4.54-2.28-1.1-1.46-.77-3.64-1.35-5.12-.25-.65-1.31-.62-1.52-1.28-1.31-4.25-1.12-9.86-3.25-14.09l.24-1.84c1.89-1.08,3.66-3.01,5.19-4.16.85-.64,2.49-.5,3.5-1.31,2.23-1.78,4.22-5.93,5.16-6.83.11-.11,1.34.4,2.09.03,3.32-1.6,6.6-4.19,10.47-1.88.7.42.98,1.85,1.91,2.4,3.61,2.12,6.08,1.42,8.2,5.93,4.5,9.58.03,16.27,1.18,24.51.22,1.56,1.59,1.09,1.73,1.75.47,2.16-1.42,8.62-1.66,11.46-1.12,13.4-1.72,26.92-4.27,40.09l-4.04.11c-1.06,3.19,1.71,6.14,1.72,8.7s-1.96,3.95-2.18,5.35c-.18,1.14,1.48,2.01,1.33,3.71-.13,1.41-1.9,2.46-1.79,5.06.06,1.5,1.57,1.08,1.74,1.79.36,1.54.51,9.64.96,10.14,4.8-.27,2.29,3.99,2.63,6.18,1.37,8.81,3.12,15.22,3.95,24.91.24,2.76,2.67,4.84.3,7.89-2.57,3.31-4.21.37-5.78.06-.39-.08-.31,1.08-.72,1.33-.66.4-1.73.23-1.96.48-.48.52-.02,2.12-.64,3.14s-2.93.65-2.13,4.1l-2.4.07.49,3.32c-5.45,5.4-11.66-.9-15.4-5.4-.97-1.17-2.4-5.28-3.55-5.98-1.58-.96-4.17.31-4.75-3.19-.43-2.59,1.72-1.97,1.67-2.4-.2-1.7-3.44-8.59-2.14-10.42,1.25-2.48,8.62-.02,8.79-1.27,1.69-5.59-1.75-7.96-2.91-11.53-.39-1.21-1.23-7.72-1.27-9.18-.08-2.99,1.55-5.39,1.15-7.72-.34-1.94-1.63-1.72-2.19-2.82-2.26-4.42-3.09-10.07,3.56-8.91-1.34-2.94-.32-6.66-.85-9.51-.4-2.17-2.83-3.38-4.16-4.98-.74-.88-.59-2.39-.9-2.79-.14-.17-4.08-.76-4.3-.75-.46.02-7.36,1.79-7.82,2-1.32.6-1.33,2.4-2.32,2.62-4.61,1.03-11.44.47-16.95,2.2-2.35.74-4.51,2.9-7.29,3.07l-1.76,8.62-4.19-.48c.19,2.46-.43,5.3.2,7.68.48,1.81,2.75,2.95,2.89,5.01.29,4.41-3.23,2.43-4.36,3.87-.38.49-2.64,8.47-2.78,9.66-.62,5.24,1.43,4.03,1.63,5.65.55,4.58.98,9.08,1.59,13.38.87,6.06-4.31,6.29-7.45,2.01l-.02,3.32-2.47-.83c1.96,1.9-5.29,9.41-6.02,9.71-5.38,2.22-8.58-4.21-12.47-6.96-.77-.54-2.24-.19-2.99-.71-1.38-.95-6.31-4.55-6.89-5.59-1.66-2.97.45-4.3,1.57-5.89s-.8-2.89,4.43-2.16c.33-.32.07-7.89.46-9.22.56-1.93,2.43-3.48,3.18-6.43,1.05-4.13.05-8.75.57-12.89.62-4.9,3.25-8.28,2.46-14.21-.58-4.36-4.39-1.74-4.19-5.68.15-3.13,3.08-3.51,3.33-4.4.09-.32.76-6.17.74-6.5-.23-3.65-1.85-4.72-.55-10.52.67-2.98,1.41-6.42,4.66-6.53,1.4-4.15-2.19-8.08-2.98-11.33-2.26-9.25-1.86-18.69-5.16-28.82-1.13-3.49-5.85-10.76-4.9-13.89.14-.45,5.51-5.66,6.49-6.81.9-1.05,2.26-4.03,2.72-4.32.8-.51,2.5-.29,3.68-.86,4.99-2.43,5.58-4.28,11.35-1.75,1.6.7,6.59,3.97,7.68,5.16Z"/>
  <path class="cls-1" d="M90.65,372.47c.78.99,9.27,2.6,11.83,4.33,7.15,4.82,13.48,12.1,19.51,17.78,2.59,2.45,6.27,5.85,4.82,9.9-.37,1.02-1.8,1.07-2.13,1.57-1.85,2.82-.06,9.48-7.69,7.24.96,2.56,1.78,6.86,1.29,9.55-.33,1.83-4.55,2.71-1.99,6.07l4.44.93c2.24,2.13-.5,5.16,1.57,6.7,1.08.81,2.67.65,3.74,1.25,3.36,1.89,2.87,1.25,5.23,2.23,9.69,4,4.28,6.9,4.23,13.31-.03,3.98,3.7,8.28,2.22,13.01l2.83-.75c2.73,1.76.49,4.91.47,7.38l-3.3-.84c-2.18,3.28.65,5.2.75,7,.06,1.02.08,9.33-.06,9.81-.3,1.01-1.74,1.73-2.14,2.89-3.49,10.37-5.85,21.58-11.97,31.13-26.56,41.46-78.37,25.21-92.71-17.23-2.17-6.43-6.4-27.73-5.85-34.04.23-2.67,2.59-3.46,2.44-4.81-.09-.8-1.17-1.79-1.35-2.84-.54-3.09-1.72-8.21.61-10.45.79-.76,2.11-.27,2.54-1.1,1.08-2.02,1.45-8.16,2.63-11.3,1.85-4.9,6.23-10.33,8.16-15.05,2.27-5.55,2.36-12.98,4.54-18.66,2-3.03,5.92-3.5,8.61-5.48.78-.57,1.11-2.11,1.72-2.48,1.04-.64,2.46.79,4.11.09,2.32-.99,2.58-5.11,7.5-3.29,3.17-2.9-.88-6.86,2.89-9.51l4.05,1.64c2.81-4.53,6.27-7.25,11.78-5.11,2.99,1.16,3.07,3.42,7.81,1.72-.42-1.06-1.42-5.25-1.76-5.69-.09-.11-1.18.45-1.55.19-1.1-.79-1.93-2.29-3.07-2.63-2.02-.6-5.99.81-6.77-1.52-1.57-4.68,3.2-9.9,8.19-7.35,2.07,1.06,1.17,3.53,1.84,4.38ZM92.95,431.51c-.54-4.57-6.48-2.91-9.44-5.03-4.04,4.04-7.88,8.23-11.67,12.52-1.07,1.22-2.94,1.79-3.78,2.85-4.47,5.67-10.77,24.29-11.58,31.53-1.22,10.88,4.92,31.72,15.01,37.23,18.39,10.04,33.53.8,40.34-17.51,3.27-8.8,3.91-13.77.59-22.6-1.33-3.54-6.4-10.63-6.9-13.06-.59-2.85.69-5.71-1.41-9.3-2.01-3.43-8.72-3.9-5.38-11.58-3.48-1.58-1.85-.08-3.32,1.13-3.82,3.17-7.81-.66-6.52-5.26l4.06-.91Z"/>
  <path class="cls-1" d="M57.05,100.18c1.88,1.26,5.88,6.47,7.77,8.4.78.79,2.34.82,3.03,1.52,2.51,2.55,3.54,8.37,4.59,9.51.83.9,3.51,1.08,4.55,2.08.86.84,4.36,8.83,4.41,10.09.07,2.09-1.36,5.26-1.6,7.61-1.1,11.12-3,23.13-3.49,33.89-.09,1.9,1.08,3.53.76,5.59-.29,1.84-2.29,4.87-2.44,7.16l-4.05.1v9.12s2.86-2.5,2.86-2.5l4.67,2.19c-.95,6.05-1.55,12.11-2.48,18.19-.52,3.4-.27,3.63-.42,5.76-.02.28-.77,4.28-.87,4.49-1.08,2.43-4,3.22-6.23,1.71v6.61c6.17.49,3.56,4.16,3.29,7.96-.32,4.57,1.62,6.71-5.75,7.02l.35,4.15c1.87,2.85,11-.48,13.13.09,1.08.29,1.72,1.96,2.74,2.18.74.15,13.79-2.89,14.71-3.3,1.7-.77.45-2.84,2.18-3.59,1.21-.52,2.4.58,3.57.32,1.31-.29,2-2.28,3.07-2.76,1.51-.68,10-4.02,11.34-4.4,1.87-.53,4.1-.04,6.06-.18v3.33c2.93-.69,6.29,1.73,8.27,3.77,1.67,1.72-.48,3.67,4.91,2.93,1.95,3.36-2.42,7.46-3.07,9.63-.69,2.32.59,6-2.68,7.33-1.09.44-7.88-3.25-11.2-3.38-1.39-.05-4.86,1.69-5.89,1.81-1.7.2-3.26-1.05-5.5-.4-1.08.31-2.38,2.1-3.86,2.8-5.57,2.62-10.64,3.33-8.34-4.6-2.09-.25-3.98.14-4.87,2.24l1.17,4.4c-.7,1.58-4.09,2.98-4.41,3.52-.5.87.25,2.03-.73,3.18-4.64,5.46-17.15,6.11-23.25,9.7-3.49,2.06-6.87,6.5-10.74,8.32-4.95,2.33-8.22-2.31-12.62-4.52-2.59-4.11-1.84-9.47-2.96-13.62-.76-2.8-3.58-4.44-3.82-7.86-.35-4.96,2.55-9.72,3.38-14.09,1.19-6.21.18-14.31,1.36-21.67.26-1.6-1.4-2.86.66-4.5.93-.74,2.89-.5,2.98-1.2.34-2.69-2.88-5.15-3.31-7.47-1.26-6.8,2.37-12.57,2.09-16.56-1.44-20.53,2.51-39.63,1.88-59.7-.07-2.31-1.93-4.99-2.28-7.51-.91-6.61-.61-13.45-1.95-20.43-.64-3.29-4.04-6.03.83-8.81,1.55-.88,4.11.21,4.83-.92s-1.2-5.36,2.61-6.52c1.76-.54,9.13.71,10.76,1.79ZM106.2,260.74c.23-2.14-1.42-2.77-3.3-2.48-.8.36,2.64,2.08,3.3,2.48Z"/>
  <path class="cls-1" d="M106.2,260.74c-.67-.4-4.1-2.11-3.3-2.48,1.89-.29,3.54.34,3.3,2.48Z"/>
  <path class="cls-1" d="M422.54,115.95c2.55,2.93,2.44,7.28,3.86,10.65,6.47,15.39,23.58,21.45,31.4,35.74,2.45,4.48,3.8,9.57,6.64,14.09,8.09,12.88,24.68,25.68,40.46,20.91,16.21-4.9,20.34-18.89,26.59-32.26,7.18-15.36,23.33-18.31,29.76-28.26,3.02-4.67,5.44-22.39,10.48-23.48,3.47.18,4.03,3.3,4.29,6.14.47,5.17-3.47,19-6.15,23.48-4.49,7.5-13.87,11.32-18.41,18.06-2.47,3.67-10.3,16.54-7.07,20.21s7.31,1.14,10.78-.74c12.4-6.7,22.05-17.93,35.15-23.7,7.94-3.5,42.86-9.76,47.6-2.17,4.29,6.87-12.52,6.59-15.45,7.17-9.05,1.79-17.72,4.99-25.54,9.91-21.73,13.68-23.27,34.13-42.05,49.13-8.69,6.95-19.38,7.83-24.47,18.64-7.73,16.42-7.99,33.93-7.71,51.59.69,43.18,4.91,88.64,9.52,132.59,3.03,28.9,6.4,62.19,15.5,89.77.26.78,2.31,7.36,3.55,6.41,5.13-14.63,15.29-27.14,28.23-35.61,3.13-2.05,15.55-7.45,16.51-10.03-.21-2.07-5.26-3.79-5.76-5.17-1.48-4.11-1.13-10.85.63-14.87.53-1.2,2.37-2.49,2.42-3.14.05-.59-1.57-3.15-1.86-4.56-1.28-6.39-.46-15.91,3.75-21.15,1.13-1.41,3.89-2.85,4.02-3.07.3-.49-.47-3.76-.13-5.48,1.54-7.81,9.34-16.16,17.64-11.33.21.12,3.22,3.25,3.33,3.47,1.51,2.72-.62,9.2-2.13,11.78-1.93,3.31-5.46,3.76-7.71,6.39,2.85,5.57.61,13.64-1.17,19.54-.41,1.34-2.04,2.63-2.14,3.7-.11,1.18,1.88,2.44,2.45,3.93,4.84,12.56-6.41,26.28-16.38,32.67-6.69,4.28-14.98,7.96-21.18,13.4-4.18,3.67-11.23,15.65-13.23,21-.59,1.58-2.19,7.23-2,8.48.13.89,2.39,2.45,3.15,3.94.95,1.85,1.18,5.49,1.67,6.2.42.6,4.69,1.82,5.92,2.79,2.65,2.09,4.92,9.39,4.69,12.72-.32,4.58-2.98,5.29-4.16,8.71,6.75.76,8.4,6.51,8.69,12.46,6.41,3.8,13.25,5.41,19.76,9.25,19.85,11.72,36.03,32.4,45.21,53.43.96,2.2,1.56,4.54,1.77,6.94,8.68-2.84,16.93-9.87,26.51-7.45-1.09-4.08,3.42-5.86,3.98-6.8.73-1.23-1.87-18.18-2.52-20.71-1.24-4.87-4.62-14.5-6.64-19.12-3.58-8.19-10.08-13.62-14.19-21.46-6.5-12.38-8.91-22.88-8.81-36.85.02-2.96,1.43-8.67,1.29-10.73-.13-1.92-7.12-6.56-6.3-10.67.44-2.52,10.4,2.18,12.85,1.95.82-.08,5.4-2.46,5.41-2.87-3.45-2.99-4.32-11.33,1.67-11.2-.03-2.44-2.52-2.5-2.55-5.35-.05-3.94,3.28-4.42,3.43-5.16.27-1.31-.86-3.29-.89-4.88-.12-6.51,3.06-15.66,8.29-19.84-1.93-.48-3.38-5.53-3.16-7.27.3-2.31,3.96-5.96,4.36-8.81.28-2.03-.58-3.89,0-6.77.72-3.55,3.5-6.04,4.49-9.36-8.88-8.49-4.47-21.21-9.41-32.04-2.19-4.79-6.32-9.6-10.26-13.01-.73-2.89,2.34-3.7,2.41-4.11.36-2.09-2.44-5.98-3.83-7.68-5.91-7.22-16.06-10.94-25.21-8.36-2.62-2.82,8.34-5.15,9.92-5.39,11.17-1.65,26.61,5.1,29.11,16.92,12.95-.42,19.18,4.81,21.23,17.31.2,1.24-.4,2.57-.08,4.16,2.01,10.08,6.19,14.87.67,24.97-.63,1.15-2.6,2.23-2.79,3.08-.26,1.18,2.04,2.15,2.42,4.05,1.24,6.16-3.7,12.78-9.1,15.34v1.22c6.42,3.59,5.3,12.67-1.71,14.99,4.45,10.13,4.76,23.05-7.39,27.3,1.76,1.91,1.66,3.03.05,4.99,7.81,3.19,4.23,8.58,1.6,14.5,2.64-.02,6.98-6.25,7.98-6.53,5.44-1.51.54,8.12.28,10.23-.56,4.65,1.23,7.98.85,12.04l10.11-5.22,16.41-2.23c.46,2.22-.59,1.42-1.64,2.05-5.32,3.2-8.32,4.09-11.49,10.09-3.68,6.97-1.46,14.55.46,21.62.24.9-.36,2.04-.14,2.8.77,2.64,4.61,6.7,5.47,9.75,8.46-2.39,16.78-3.95,25.58-2.37l-9.31,4.97c-22.68,22.12-8.91,50.36-8.36,76.69.11,5.27-.14,17.44-1.46,22.29-1.74,6.37-8.9,13.04-15.67,10.46-.29,2.28,2.58,2.89,3.14,4.73,1.3,4.32-1.93,7.85-5.22,10.19-8.82,6.28-20.88,3.6-30.25.01,1.35,7.87,3.02,16.4,3.35,24.41.27,6.53-.96,13.55-.9,19.9.07,6.79,3.53,12.16-4.64,16.91-7.18,4.17-19.7,1.49-28.33,2.37-2.26.23-19.22,2.79-19.23,4l2.07,7.79,18.37-4.03c11.94.2,24.65-1.61,36.17,2.62s10.57,12.86,8.06,23.02c8.95-2.02,14.1,6.38,20.31,10.78,2.36,1.67,6.11,3.98,8.66,5.43,2.11,1.21,4.54.89,6.33,2.79,3.64,3.9,1,10.15,1.29,14.83,13.08,4.12,9.44,22.36,17.69,29.19,2.34,1.94,6.77,3.43,9.54,4.97-.95,3.85-11.37,2.23-12.04,3.29-.63,13.22,11.7,34.71,24.7,38.39.93.26,2.15-.27,2.2-.17.2.37-.14,1.37.11,1.74.77,1.14,2.14.15,1.61,2.33-5.76,1-11.34-.62-16.9-1.77-.89-.18-.85-1.33-2.15.53,5.03,10.36,8.69,21.4,13.91,31.67s11.4,19.5,18.41,28.23c.83,1.04,1.45,3.67,2.42,4.65,1.27,1.29,3.29-.65,2.53,3.02-2.44-.8-5.79-1.41-8.05-2.3-4.33-1.72-8.26-5.7-12.01-7.06s-8.26-1-12.21-2.22c.29,2.74-4.6,7.52-4.86,8.8-.23,1.15,2.08,5.88,2.33,8.22.5,4.65-1.79,14.55-6.52,16.51,1.8,6.51,7.99,3,10.16,10.33.87,2.95-1.81,5.17-4.47,5.88v1.63c2.28-.11,2.3,2.6,3.58,3.89,1.08,1.08,3.24,1.53,4.25,2.8s.91,3.26,1.47,3.91c.8.94,4.06.97,5.37,2.1s1.54,4.18,2.43,4.81c2.06,1.43,4.89.23,7.76,3.65,4.27,5.09,3.29,11.91,6.45,17.59,1.58,2.84,8.54,8.62,8.29,11.29-.14,1.51-2.07,2.9-2.07,4.94,0,3.75,3.37,18.31,5.22,21.24,2.01,3.16,8.33,6.75,11.94,7.12-2.34,2.67-6.88-.07-9.52-1.24-4.74-2.11-6.68-4.44-10.68-7.42-1.18.2-8.66,13.72-13.76,9.9.79-2.04,3.83-2.57,5.02-3.9,5.14-5.73,5.66-13.71,4.93-20.96-11.2,2.31-9.02-5.87-13.25-10.38-5.35-5.71-10.8-3.84-14.34-14.67-2.27-6.95.29-6.65.28-10.14,0-.43-1.38-.42-1.65-1.08-.45-1.1-1.41-5.71-1.79-5.97-1.05-.74-5.1,2.72-8.15-3.91-2.03-4.41.74-9.3-.17-12.15-.72-2.24-7.68-2.12-7.31-9.98.1-2.05,2.51-6.92,2.37-7.5-.2-.84-2.94-1.9-3.98-3.51-3.68-5.67-3.26-20.35,3.21-23.93l-4.15-6.22c-4.33,5.53-11.32,7.62-18.22,5.8,1.9-5.31,8.45-1.69,11.37-8.1,3.58-7.85-5-8.51-8.43-12.67-5.13-6.22-6.22-15.43-5.03-23.18.78-5.12,4.2-11.04,4.29-15.67.19-10.54-8.19-25.08-10.4-36.28-1.26-6.38-.29-12.82-.14-19.29-1.99-.87-3.91.15-5.94-.2-9.93-1.69-5.49-13.2-15.56-15.59-1.56,7.85.17,15.76.36,23.63.98,40.42,6.82,79.59,6.3,120.24-.02,1.59-1.03,3.61-.75,4.78.35,1.49,9.87,6.02,12.24,7.69,7.97,5.65,24.34,21.96,23.24,32.24-.25,2.3-1.81,4.96-1.63,6.63.11,1.08,4,6.1,4.74,8.56,2.65,8.93-1.51,20.38,1.32,29.36,1.72,5.47,6.89,7.47,10.53,11.42-2.01-.11-4.19.28-6.17-.04-1.77-.29-8.14-3.97-8.69-1.15l2.15,15.06,7.73,11.83c-1.61,1.17-15.02-5.36-16.99-7.44-5.02,6.42-3.07,12.62-.56,19.61,1.19,3.31,2.26,7.69,5.95,7.31-2.51,4.03-14.29-4.24-14.91-3.72-2.54,7.25,5.83,11.73,6.55,18.72.15,1.41-.61,6.26-1.16,7.78-1.65,4.56-5.15,8.19-7.4,12.38-1.26,5.26,4.9,13.04,4.38,15.34-.48,2.12-9.93,3.93-12.32,2.99-.13,1.75,1.5,2.6,1.93,4.3.91,3.59-2.43,10.98-6.91,10.63,3.68,4.52,4.99,10.27-1.65,12.44,1.73,3.63,3.62,8.83-1.66,9.95v1.63c4.35.81,4.38,7.19,2.4,10.3-1.48,2.32-5.01,1.91-6.55,3.4-.98.95-4.8,9.64-6.29,11.95-17.38,27.1-57.21,43.19-88.62,39.5-1.94-.23-4.17-2.7-6.65-.49l-.4-1.64c8.68-1.26,34.59-5.25,37.78-14.07.27-.74.66-1.63.23-2.38-.56-.99-14.27-4.14-16.62-4.5-4.13-.64-8.12-.13-11.87-.61-1.14-.15-2.47-.5-1.23-1.65,2.64-.78,6.99-.95,9.32-1.88,1.73-.69,2.59-2.58,4.76-3.52,1.82-.79,10.09-2.87,12.06-2.79,13.4.56,21.34,10.01,35.64,5.72,14.71-4.42,21.16-13.21,26.74-26.99-7.99-4.51.55-9.62,1.64-13.42.43-1.48-.08-3.19.34-4.64.36-1.23,2.09-1.94,2.28-2.76.13-.57-2.52-3.51-2.96-5.86-.49-2.59,1.49-4.38,1.35-6.87-5.98-.42-8.31-7.08-7.45-12.45l-4.16-.39-13.19-6.72,2.07-5.28,6.17-7.09c-5.58-3.81-11.7-7.08-3.33-12.5-17.48-23.12,10.13-42.07,21.9-59.3,7.32-10.71,9.63-16.46,10.66-29.14.23-2.82,2.27-6.17,1.02-8.9-.33-.72-9.87-11.02-10.76-11.64-.73-.51-1.08-1.48-2.12-.43l-7.87,26.12c-13.35,37.17-44.53,73.53-76.68,95.74-1.66,1.14-4.77,1.69-6.09,2.9-5.74,5.28-12.22,9.79-19.84,14.27-13.31,7.82-27.2,14.75-42.43,18.02-48.68-14.65-92.65-36.1-124.71-76.63-19.46-24.6-30.08-46.8-41.09-75.82-.4-1.05.01-2.03-1.6-1.67l-5.11,9.51c4.45,6.31,1.71,12.06,1.38,18.32-.86,16.47,7.51,38.41,19.04,50.29,10.32,10.63,21.2,9.77,23.7,28.82.26,2-.53,7.18-.08,8.26.77,1.83,5.52,3.97,5.34,7.06.01,3.21-4.09,4.31-5.72,6.64,2.14,2.01,9.26,10.07,9.62,12.44.33,2.16-5.65,4.05-7.52,4.59-3.73,1.08-7.45,1.51-11.29,2-.32,6.28-1.05,10.42-8.23,11.23-.63.86,3.79,6.31,2.07,9.92-.51,1.07-2.46,1.78-2.78,3.08-.09.36.54,6.47.7,7.32.37,2.07,2.18,1.71,2.77,3.07,2.61,5.97-2.59,6.78-2.73,9.31s4.77,11.74,6.61,14.12c5.8,7.51,14.25,16.1,24.02,17.43,8.22,1.12,11.28-5.76,17.12-9.4,2.17-1.35,9.35-4.64,11.58-4.86,3.78-.38,8.63,3.87,12.52,4.53,4.73.8,10.88-1.81,13.48,1.84-5.04,3-27.77-1.05-24.72,9.36.7,2.41,7.38,6.65,9.81,7.64,6.81,2.76,13.36,1.47,19.88,4.58,1.13,1.18-.05,1.51-1.22,1.65-8.25.96-17.39-.06-25.68,1.69-29.97.79-48.82-9.08-63.47-35.24-1.18-2.1-4.47-11.21-5.13-11.86-1.24-1.22-3.9-.27-5.45-3.26-2.83-5.44.04-8.02-.38-10.45-.13-.76-1.36-1.59-1.48-2.7-.21-1.86,1.88-2.8,1.6-4.72-.26-1.81-3.12-3.91-3.11-6.83,0-1.9,2.34-5.75,2.19-6.67-.12-.74-2.24-1.43-3.03-2.55-2.78-3.91-1.45-7.85-.1-11.92-5.73.15-10.96-1.13-14.81-5.54l2.21-15.44c-.45-2.34-6.99-6.58-8.94-9.29-4.23-5.9-3.58-12.62-3.33-19.48-1.94,2.53-17.89,7.79-19.05,6.63-.33-3.54,4.28-3.98,6.63-7.05,4.39-5.73,6.5-13.05,2.48-19.48-7.59,3.42-14.64,5.99-23.19,4.97l8.98-8.84c4.19-7.01,5.91-12.77,6.04-20.56.03-1.99,1.53-4.09-.51-5.41-3.71,3.43-8.71,4.78-13.26,6.64-.84.34-1.74,1.28-2.07-.45-.21-1.12,4.94-5.68,5.96-7.29,1.87-2.94,5.16-10.96,5.57-14.32,1.1-8.96-4.26-19.66.55-27.64.81-1.35,3.32-2.81,3.53-3.91.44-2.31-4.11-5.94-4.67-8.34-3.56-15.51,13.9-29.21,25.25-36.58,2.3-1.49,8.19-2.66,8.6-5.56-.55-7.44-1.56-14.86-1.7-22.31-.58-31.21,6.35-62.16,7.99-93.04.28-5.34-.61-12.17-.39-17.99s1.42-12.04,1.52-17.94c-8.86-1.43-8.72,9.94-13.84,13.09-3.33,2.05-8.89,1.89-12.68,1.83,2.9,21.76-12.63,37.55-16.9,57.92-2.67,12.75-.82,18.57.02,30.49,1.07,15.02-2.33,13.83-6.4,25.58-3.13,9.04,4.32,14.22,11.67,17.4-2.44,3.63-7.17,2.86-10.82,1.71-4.12-1.3-6.08-4.89-9.89-6.26l-2.37,4.56c2.68,2.44,4.54,5.2,4.57,8.99,0,1.03-1.47,9.73-1.83,10.46-.91,1.85-4,2.54-4.44,3.91s.79,3.6.71,5.54c-.07,1.58-2.01,7.49-2.91,8.77-1.47,2.09-4.04,2.12-5.37,3.75-1.93,2.36-2.15,7.32-5.34,9.59-2.49,1.77-5.72,1.08-7.54,2.41-3.26,2.38-2.76,10.01-10.29,7.53,1.92,3.87,2.7,6.5,1.28,10.85-.39,1.19-3.04,3.28-4.06,5.01-4.25,7.24-3.67,12.39-3.56,20.38l-5.12,2.03c-1.52,6.02-.19,13.97,3.3,19.19.75,1.12,5.76,5.44,4.83,6.36-5.76-2.32-10.51-3.46-12.84-9.96-2.76-.53-2.65,2.19-4.12,3.35-3.41,2.69-9.28,5.5-13.69,5.78l8.28-7.88c2.09-2.95,4.87-11.44,3.15-14.71-.81-1.54-2.46-1.81-3.53-3.13-4.68-5.77.54-10.43,1.82-16.37s.07-8.84.2-13.82c.26-9.53,5.64-15.78,15.33-13.76l.88-.79c-2.08-9.01,9.28-6.93,11.06-8.4.19-.16.66-3.53,1.41-4.81,3.32-5.65,10.09-2.3,11.13-2.94,2.15-1.33-1.5-3.64-1.65-5.87-.43-6.26,9.94-6.42,9.92-8.24-5.22-4.55-4.84-12.61-1.59-18.18-5.2-2.88-8.13-7.88-5.86-13.73-6.34,4.8-12.64,9.4-20.53,11.38-7.41,1.86-15.6,1.25-22.55,4.38-.02-3.39,3.97-3.72,5.83-5.35,15.56-13.68,30.43-54.68,35.41-74.84.22-.9.24-1.8.18-2.71-2.28,1.96-23.06,6.1-23.18,2.07,1.48-1.93,3.75-.86,5.76-1.68,2.67-1.09,22.85-20.12,24.01-22.59,1.94-4.11,6.25-18.45,7.32-23.18.21-.9.27-1.79.19-2.7-4,1.53-8.57,1.33-12.86.83-1.24-.14-2.53-.68-1.23-1.66,5.24-.02,12.77-7.57,14.94-12.01,1.36-2.78,1.77-6.83,3.15-10.12,3.28-7.85,8.63-17.24,18.38-16.85-14.05-15.87,8.78-15.05,17.57-19.96,2.3-1.29,5.12-4.86,8.4-6.7,2.96-1.65,6.19-3.26,9.67-3.18-1.69-7.9-6.65-13.88,3.01-18.96,9.61-5.05,31.65-3.45,42.44-2.02,4.53.6,15.17,4.16,18.77,3.62,3.02-.45,2.38-5.26,3.75-7.5-2.96-.66-5.78-1.96-8.8-2.41-12.18-1.83-27.28.13-38.68-4.42-12.59-5.03-3.11-14.9-2.23-25.07,1.04-12.06-2.02-25.5-.86-37.75-7.96,3.88-15.54,6.58-24.45,7.45-7.42.73-28.25.43-29.4-9.61-.69-6.01,3.29-6.3,4.95-11.11-10.78,5.25-22.63-1.04-25.18-12.32-2.13-9.41-1.21-21.26.88-30.66,2.86-12.85,11.45-27.91,8.5-41.1-2.07-9.26-12.28-23.14-20.66-27.42,4.38-3.01,9.75,1.58,14.55,2.04l13.64,9.15c2.28-17,1.9-30.9-15.17-39.12-3.77-1.81-9.81-1.5-10.51-5.64,5.76-.06,12.11-1.48,17.78-1.69,1.93-.07,9.09.86,9.6.5,1.27-.9-.36-11.33-1.07-13.1-.98-2.42-4.76-4.12-5.41-6.2-.78-2.51-.68-7.38-1-10.18l8.69,6.65c2.09.3.9-2.22,2.41-3.42,3.25-2.57,9.46,1.84,10.45.9-1.91-5.84-4.34-14.96,4.97-12.44-2.56-3.17.92-9.09.71-10.23-.48-2.61-4.69-1.03-4.84-8.42-.11-5.61,4-9.14,9.11-10.37v-1.22c-8.08-6.26,1.21-15.24.54-20.78-.18-1.48-5.03-2.06-4.64-8.14.11-1.73,1.7-4.57,1.44-5.83-.22-1.09-3.66-2.79-4.85-5.03-4.79-9.03,3-14.61,4.5-23,.58-3.22-.52-7.15,0-10.06,1.31-7.43,5.3-15.87,13-18.33,2.74-.88,11.63-.25,12.23-.6.29-.17,2.47-3.86,4.37-5.18,9.9-6.86,22.04-11.61,34.24-10.33l10.45,4.03c-10.85-.49-29.7,1.76-36.96,10.79-.92,1.14-.6,2.24-1.13,2.92-1.13,1.46-2.95,1.46-3.35,2.88l8.2,6.09c-1.08,3.31-4.25,3.79-6.14,5.53-4.97,4.55-8.7,10.83-10.99,17.2-2.45,6.82-.87,11.46-6.01,17.2-2.07,2.31-6.18,2.77-4.82,7.29.76,2.51,4.44,2.97,4.38,8.76-.05,4.16-1.89,3.24-2.89,4.85-2.63,4.2,3.51,8.24,3.03,12.67-.41,3.75-5.16,6.4-4.57,8.55.3,1.09,2.17,1.69,2.43,3.51,1.15,7.96-9.79,10.84-8.74,15.39.91,3.93,5.9,4.87-.41,10.68,2.1-.39,7.71-1.46,8.68.8l-2.87,10.81c7.26.89,9.03-6.65,15.75-5.79.47,6.26-2.38,8.91-5.8,13.65.88,2.97,3.27,5.45,3.94,8.5,5.98,27.17-6,50.47-14.68,75.29l-7.51,36.85c3.57-.49,5.43.43,5.82,4.15,11.01-5.15,22.97,3.51,33.13,6.63.57-5.01,2.57-9.58,4.55-14.12,10.46-24.09,26.56-43.93,50.25-55.85,1.6-.8,6.28-1.57,7.17-2.36,1.7-1.5,2.13-10.59,7.67-9.76-1.11-3.72-4.24-5.95-3.82-10.18.24-2.41,2.04-7.77,3.47-9.65,1.04-1.35,3.29-2.08,3.6-3.09.68-2.24-4.97-6.54.02-12.13,1.16-1.29,3.04-.79,3.65-2.46-.69-10.3-8.4-19.64-16.58-25.36-1.76-1.23-4.18-1.77-6.01-3.11-4.32-3.16-7.91-7.32-12.37-9.59l-4.33-15.58c-8.99,3.2-10.86-15.03-8.13-19.46.7-1.15,3.03-1.39,2.89-3.36-2.12-3.65-3.35-8.17-2.93-12.43.09-.95,1.1-1.76,1.18-2.51.57-5.16-3.67-5.62-5.72-9.62s-4.04-12.21-.96-15.73c7.78-8.89,19.32,3.12,19.6,12.08.04,1.36-.95,3.28-.77,4.07.12.52,3.53,2.62,4.74,5.13,2.44,5.06,2.37,15.93-1.51,19.92,4.41,4.92,5.9,18.52-1.73,20.65,2.1,9.96,8.46,16.84,16.69,22.26,1.96,1.29,4.98,1.94,7.31,3.46,7.38,4.8,14.93,13.52,14.98,22.74,2.16.38,1.29-.29,1.73-1.18,16.13-32.18,18.6-69.98,21.77-105.22,3.69-41.09,6.26-82.74,4.74-123.79-.68-18.43-1.01-34.26-8.76-51.69-7.33-16.47-17.57-12.12-29.45-21.94-10.09-8.34-14.96-21.57-23.48-30.82-9.44-10.26-26.61-20.29-40.15-24.09-3.2-.9-17.64-2.71-19.05-3.73-1.11-.8-1.5-4.8-.2-6.07,2.1-2.04,11.21-2.5,14.38-2.57,17.09-.34,28.18,2.34,42.76,10.95,7.98,4.72,14.74,12.42,24.83,11.86,2.88-8.16-1.69-18.56-6.53-25.19-2.93-4.01-7.51-7.48-10.29-12.09-4.26-7.06-7.95-18.26-5.35-26.35,1.85-1.15,5.79,1.21,7.06,2.67ZM576.16,803.76c-4.72,2.35-4.95-1.73-8.58-3.26-1.18,1.84-4.13,2.45-5.26,3.5s-1.91,3.78-3.5,5.22c-1.03.93-2.61.89-3.13,1.41-.42.42-1.81,4.1-2.7,5.06,2.18,2.87,6.03,2.6,4.59,7.16-.15.48-2.89,6.18-3.16,6.41-.99.88-4.93.98-6.44,1.02-1.4,1.33,5.13,5.81.46,9.17-1.34.96-3.07.74-4.37,1.43-5.68,3-3.63,9.26-5.63,10.12-2.35,1.02-5.24-6.16-7.57-6.54-.9-.15-2.01,1.36-3.26,1.58-7.21,1.25-10.56-10.23-14.84-13.29-2.71-1.94-7.72-1.75-11.19-2.9-5.12-1.7-9.92-6.14-13.82-9.8-2.7-2.54-4.28-7.93-9.21-5.79-1.24.54-2.91,4.21-4.33,5.69-3.13,3.28-14.02,11.8-14.59,15.28-.53,3.25,2.11,5.32,3.01,7.88,2.06,5.89,1.99,9.77,4.29,15.6,2.27,5.78-3.3,14-8.79,12.09-1.66-.58-.43-3.08-3.04-2.03-4.28,1.73-2.08,3.01-2.78,5.46-1.37,4.78-3.78,7.7-9.01,4.99-1.73-.89-2.06-8.26-.6-9.95-7.36.09-7.35-4.54-1.67-7.88-2.08-1.09-2.55-2.03-3.26-4.22-8.77,2.59-5.58-3.79-10.8-6.15-.71,5.14-1.58,2.51-3.75,2.81-3.24.44.02,5.73-2.27,7.78l-5.56-.24c-.31-2.2-3.29-4.28-3.8-5.41-.84-1.86,1.71-4.7-.8-4.13-5.18,1.19-3.13,3.47-3.75,7.03-.37,2.14-2.76,3.04-.32,6.19,2.1,2.7,3.94,1.12,1.93,6.87-.24.68-1.43.66-1.55,1.23-.36,1.66.33,3.45-.14,5.1l-5.64.13-3.07,5.72-3.59-.75.35,5.86c3.44.06,7.65,5.23,8.42,8.19.33,1.27-1.8,1.79-1.31,3.35,2.38-1.27,9.51-1.3,9.74,2.07.07,1.05-2.28,2.62-2.27,4.15,0,1.37,2.87,4.18,2.12,5.42-3.54.54-4.85,3.68-6.87,4.77s-7.82-.19-7.68,1.41c.03.33,5.24,3.5,5.56,3.6,2.23.65,4.52-1.26,6.03-.33l3.33,10.41,1.64-.59c-.09-3.64,2.81-2.49,4.17-3.25,1.69-.95,3.56-4.6,6.67-2.43,1.86,1.3,0,4.72.02,6.61.04,4.2,3.78,6.54,7.61,5.28,1.58-.52,2.48-2.65,4.13-3.34,1.92-.8,4.08-.28,5.61-1.03,2.32-1.14,1.36-5.47,7.45-2.91l-5.7-9.55c3.4-3.08,8.22-4.01,9.44,1.27,2.65.59,2.12-2.2,4.52-3,4.59-1.54,5.49,7.31,4.25,10.34l4.91,3.42-.05-5.37,9.99-5.41-3.3-4.55c4.48-1.47,1.81-4.77,3.67-6.29,3.86-3.15,7.75,6.59,9.58,5.04.29-4.16-4.18-7.89-4.65-10.74-.38-2.34,1.41-2.93,1.33-5-8.27,1.44-6.88-5.56-1.66-8.76-1.32-6.7-9.88-1.94-7.28-10.56.42-1.41,2.6-2.13,2.31-3.47-2.45-2.59-5.91-1.17-8.59.33l-2.16-2.8c.94-4.52,4.73-7.67,9.09-8.74.78-1.1-3.98-5.32-4.58-7-1.59-4.47.91-10.72-.03-15.4l6.71-1.6,3.92-9.75,6.45-2.35c8.34,3.42,16.02,8.56,22.73,14.58,2.16,1.94,9.22,9.02,10.26,11.29,1.99,4.3,1.02,12.72,6.16,14.61,4.62,1.7,7.8-9.28,12.23-7.28,5.28,2.39-1.67,9.95-2.09,11.93-.12.57.35,5.56.51,5.8.24.37,5.53,1.5,7.88,3.73,4.52,4.29,8.4,15.47,7.58,21.49-.18,1.3-3.16,10.12-3.94,10.99-3.08,3.43-8.53,1.94-12.48,2.4-1.87,1.4,1.74,8.95-4.37,11.44-1.58.65-3.33-.57-4.78,1.23-3.7,4.57.65,13.28-.87,19.64-1.77,7.43-12.73,15.06-20.21,15.26-2.83.07-6.82-1.66-9.73-1.35-4.99.54-12.71,7.09-20.16,8.09-8.52,1.14-16.38-2.71-23.99,3.36-6.45,5.14-2.43,10.11-3.31,16.57-.96,7.02-4.29,12.59-5.1,19.84-.51,4.5,1.46,18.46,4.63,21.25,4.36,3.84,6.37-.69,10.36-.44,2.85.18,4.4,2.68,6.31,3.66,2.52,1.29,4.54-.88,5,3.35.25,2.31-.67,3.24-1.02,4.89-.2.92-1.3.87.55,2.17,3.31-2.37,4.98-.88,5.82-5.83,2.58-.69,5.76,2.51,6.2,5.01.95.67,3.22-2.87,5.8-1.27,4.85,3.02-3.1,10.05-2.92,13.7l-1.65.88c-2.17-1.79-5.64-2.55-3.14.82.2.27,1.49.33,1.82,1.31.8,2.33-3.97,8.51-6.65,8.23-4.53-.47-4.3-4.71-4.99-5.3-.74-.64-3.43.42-4.7-.29-.47-.26-1-2.87-2.33-3.11-4.4,3.53-3.82-.91-7.78-1.69v5.8c8.12-.23,7.11,9.93-.24,9.84l-3.49-2.43-3.3,2.63c-2.55-.08-3.57-2.55-6.54-2.52-5.06.05-3.11,2.08-4.24,4.07-1.33,2.33-5.52.91-7.09-.52l1.7-8.57c-4.64-.85-5.61,3.88-6.8,4.43-1.86.86-4.44.49-6.46.55-.31,2.16,2.37,3.56,2.51,5.45.09,1.2-3.3,8.6-2.51,9.47l4.41-.07c5.13,13.88,3-1.45,7.49-.7,1.63.27,2.9,3.96,3.85,4.55,1.17.72,3.46-1.03,5.27-.4,1.46.51,1.77,5.5,5.5,4.92,0,5.03-5.85,1.99-7.3,3.47l-.92,4.43-8.35.79c4.18,1.75,2.68,6.06,5.09,9.47,10.01-4.95,9.87,9.61,11.57,10.82.22.16,3.08-1.48,4.49,1.71,1,2.26-1.18,6.68-2.08,9.08,3.72-1.1,4.85,3.64,7.86,3.39s1.4-2.13,1.5-3.14c.33-3.06,4.28-3.11,5.97-1.09,2.83-2.48-1.09-5.81-.45-9.49.83-4.74,8.94-.74,7.49,3.71,3.55.61,3.86-3.18,6.21-4.9,1.66,2.13,7.07,3.02,7.76,5.49.51,1.81-.54,3.51-.43,5.16.6,8.88,3.77,14-3.6,21.19-9.79,9.55-13.94-.23-22.98,4.31-.75.38-4.88,4.51-4.36,5.22l40.16,16.62c7.26.89,18.34,5.82,25.21,6.17,2.17.11,11.58-3.87,14.09-5.06,3.96-1.88,25.56-14.54,26.62-17.32.56-1.45-2.45-1.51-3.78-2.83-2.6-2.58-2.5-8.54-7.87-3.84-1.66,1.45-2.13,3.85-3.63,5.49-.96,1.05-7.93,7.31-8.74,3.65-.43-1.94,2.3-2.89,2.45-3.46.2-.77,1.46-6.75,1.46-7.11.03-6.56-7.66-10.89-5.18-20.5,2.64-10.24,10.7-6.92,17.02-11.99,3.25-2.61,4.52-4.52,5.29-8.61,1.48-7.79.77-16.36-3.28-23.27-1.96-3.34-6.82-6.13-7.48-8.31-1.01-3.36,1.28-3.79,1.3-5.41.04-2.93-5.59-5.31,1.29-9.52l5.7,4.1c2.21-2.43,3.08-5.69,7.11-4.96v3.33s8.6-2.43,8.6-2.43c1.03,3.22,8.57,7.49,6.79,10.73l-2.95,2.06c7.82,11.88,5.42,3.07,9.1.82,1.62-1,4.72-.16,6.64-.41l-1.53-3.73c1.76-1.98,3.9-2.17,4.09-5.3,3.57-1.55,5.4,4.02,7.8,4.1s1.71-6.22,5.37-3.61l1.09,1.33,1.86-.16c2.53-1.91-.39-7.78.81-10.01.14-.26,4.16-3.74,4.5-3.83,1.61-.43,3.63,1.06,4.87.35,4.04-5.67-.36-3.67-1.96-5.66-.24-.3-.04-3.64-1.21-4.54l6.63-1.68c-1.42-1.63-3.9-1.4-5.43-2.86-2.06-1.97-1.75-6.21-2.13-6.58-.23-.22-3.18-.16-4.86-1.35-1.88-1.34-1.79-3.42-2.71-4.33-1.57-1.57-9.17.14-11.85-1.67l-.81.58c-.04,5.96-4.87,9.49-8.21,3.3-.71-1.31-.7-4.06-1.5-4.73-1.72-1.44-4.52.71-4.71-4.82-.05-1.47,1.24-3.45.41-4.53-3.65-1.37-7.5-.67-7.96-5.76-5.01,2.92-4.8-1.42-8.27-2.47,1.72,3.13-.27,7.7-4.23,7.02-.52-.09-8.46-5.21-8.8-5.61-.65-.77-.31-2.69-1.87-3.52-2.55-1.36-5.08.77-7.49.11-3.52-.97-11.12-12.41-16.49-8.32-1.12.85-1.62,2.64-2.94,3.7-3.66,2.92-13.32,3.63-15.58-1.07-.56-1.17-.3-2.89-.83-3.72-1.22-1.91-5.07-1.61-2.64-7.64,2.55-6.33,7.82-3.72,11.1-6.3,2.67-2.1,2.39-6.02,3.84-8.6,7.24-12.85,31.27-3.7,37.67-21.18,4.24-11.58-2.49-19.1-.8-29.82,1.05-6.68,7.46-4.53,9.91-6.67,1.32-1.15.72-4.53,1.74-6.14,3.78-.89,6.85,2.75,10.41.45.48-.31.69-1.5,1.65-2.03,5.91-3.23,12.06,2.56,10.64,8.57-.57,2.44-3.59,7.07-2.72,9.81.36,1.14,2.35,1.36,3.24,3.37,1.15,2.58-.27,8.05.44,11.05,1.41,5.96,5.95,12.49,7.74,18.43h-2.5c2.16,3.51-1.34,7.61-4.98,5.37-.51-.32-.66-1.53-1.41-2.07s-1.97-.55-2.76-1.22.14-2.26-1.21-2.88c-1.79,2.46-3,3.69-5.83,4.94l.05,8.31c-1.08,2.16-4.19,1.69-6.23,1.66.45,1.91,1.02,4.04-1.6,4.19l-.04,1.17c4.99,4.51,1.3,11.45-5.68,8.83l-3.43,4.46c2.79,1.18,1.81,6.04,4.56,6.28,3.53.31,3.66-4.26,5.96-4.93,2.51-1.01,5.35,2.45,7.24,2.44.48,0,.9-3.87,4.91-2.45,4.34,1.53-.9,8.51-.3,9.02,1.81-.05,4.46-.06,5.83,1.24,1.94,1.85-1.28,3.85,1.21,5.38l5.8-6.6,5.16,7.02-2.27,3.74c2.67-1.44,6.9,4.71,8.04,4.96,1.81.4,4.14-.47,6.03.85l3.02-4.79c2.25-.44,5.23,2.3,6.55,2.29s2.45-2.12,4.08-1.64c1.2.35,3.86,11.31,10.45,1.24.17-.26,2.33-4.71,2.33-4.99,0-.58-1.95-1.46-2.18-2.58-.8-3.97,5.02-6.09,8.1-4.46l-.83-2.48,3.19-.95c-.11-2.42.23-5.61-1.46-7.62s-9.69.4-6.69-7.19c-11.8-1.4,1.02-9.66-.39-12.49-2.74-.6-3.5-4.7-4.58-5.39-1.31-.84-11.3,1.62-9.21-7.33l2.58-.91c-1.29-2.9-6.18-5.07-7.41-6.76-.17-.24-1.69-5.39-1.69-5.69.02-1.44,2.49-2.37.82-3.31l-5.81.43,2.53,5.34c-1.4,2.36-3.8,7.3-7.01,6.2l-1.78-2.48-6.83,1.54c-6.55-9.22-13.88-25.14-9.92-36.48,1.45-4.16,6.05-8.28,3.89-13.38-3.16-7.47-6.52-1.53-10.93-2.33-4.13-.75-3.59-7.86-9.73-6.51-.5-3.5,2.39-4.63,1.03-8.03-2.26-5.62-7.55-5.91-11.01-9.75s-5.22-10.95-.28-14.5c3.5,2.85,3.09-.27,4.84-.56,4.53-.75,5.73,4.9,7.66,5.4l6.49-2.14c1.69.21,1.14,4.28,5.65,3.1.32-.08,2.22-5.92,2.24-6.25.03-.57-2.32-.05-1.68-1.65,1.15-1.4,2.43-2.01,4.13-1.26l-.82-5.8c4.97,1.54,3.84-.67,5.13-1.47,3.29-2.05,6.67,2.46,7.61,2.25l3.31-2.38,4.65,2.46c-.67,1.98-1.01,8.26,2.91,7.42,2.44-.52-.44-2.53-.06-3.31l2.77-2.89-1.46-3.73,7.45-2.1c.21-.95-4.42-3.72-4.79-7.65-.29-3.06,2.13-4.57,2.31-6.49.03-.34-1.84-6.32-2.01-6.61-1.03-1.74-6.89-4.19-5.33-6.9.3-.52,3.06-.49,2.36-2.58-5.16-.12-3.47-5.67-7.45-7.77-4.04-2.13-7.56-.2-11.61.3,2.9-5.18-1.81-7.95,2.12-13.26-1.47-2.35-4.2-1.18-6.26-2.08-1.87-.82-1.92-3.83-3.73-3.81-3.73.04-3.59,4.23-4.74,4.88-.55.31-9.14,1.26-9.71.93l-.08-6.56Z"/>
  <path class="cls-1" d="M552.73,1044.85c-.5.36-1.87-.04-2.13.25-.36.39-.08,5.91-2.54,7.06l-.04,1.11,2.39,1.38c.83,4.1-3.74,7.6-7.41,5.73-1.97-1-1.75-4.45-2.67-5.22-.58-.49-2.35-.45-3.41-1.12-6.34-4.02.36-8.31.29-13.97-6.45.3-3.93-6.15-4.2-6.54s-5.41-2.39-3.72-5.08c.23-.37,3.95-2.75,4.58-2.94,6.74-2.04,9.65,6.27,16.67,5.82-.08,3.74,6.51,10.46,2.2,13.53Z"/>
</svg>