<?xml version="1.0" encoding="UTF-8"?>
<svg id="Calque_1" data-name="Calque 1" xmlns="http://www.w3.org/2000/svg" viewBox="0 0 99.5 118">
  <defs>
    <style>
      .cls-1 {
        fill: none;
        stroke: #fff;
        stroke-miterlimit: 10;
        stroke-width: 2.85px;
      }
    </style>
  </defs>
  <path class="cls-1" d="M44.29,64.17c-13.69-4.8-26.5,10.57-18.81,23.03,7.89,12.76,27.79,8.65,29.29-6.41,2.29-23.05-2.83-51.26-.1-73.9.12-1.02-.04-2.18.93-2.85l13.21-.29c2.65,9.99,9.37,18.89,19.79,21.41,2.39.58,5.3-.62,6.89,1.64v20.82c-1.56,2.2-7.22.1-9.7-.73-3.9-1.32-7.39-3.83-11.17-5.42v39.28c0,12.94-11.4,27.39-23.49,31.45C13.68,124.74-12.98,77,16.78,52.33c6.76-5.6,19.39-10.62,27.51-6.61v18.45Z"/>
</svg>